%TF.GenerationSoftware,KiCad,Pcbnew,10.0.5*%
%TF.CreationDate,2026-07-30T21:37:16-04:00*%
%TF.ProjectId,zero3w,7a65726f-3377-42e6-9b69-6361645f7063,rev?*%
%TF.SameCoordinates,Original*%
%TF.FileFunction,Legend,Top*%
%TF.FilePolarity,Positive*%
%FSLAX46Y46*%
G04 Gerber Fmt 4.6, Leading zero omitted, Abs format (unit mm)*
G04 Created by KiCad (PCBNEW 10.0.5) date 2026-07-30 21:37:16*
%MOMM*%
%LPD*%
G01*
G04 APERTURE LIST*
G04 Aperture macros list*
%AMRoundRect*
0 Rectangle with rounded corners*
0 $1 Rounding radius*
0 $2 $3 $4 $5 $6 $7 $8 $9 X,Y pos of 4 corners*
0 Add a 4 corners polygon primitive as box body*
4,1,4,$2,$3,$4,$5,$6,$7,$8,$9,$2,$3,0*
0 Add four circle primitives for the rounded corners*
1,1,$1+$1,$2,$3*
1,1,$1+$1,$4,$5*
1,1,$1+$1,$6,$7*
1,1,$1+$1,$8,$9*
0 Add four rect primitives between the rounded corners*
20,1,$1+$1,$2,$3,$4,$5,0*
20,1,$1+$1,$4,$5,$6,$7,0*
20,1,$1+$1,$6,$7,$8,$9,0*
20,1,$1+$1,$8,$9,$2,$3,0*%
G04 Aperture macros list end*
%ADD10C,0.150000*%
%ADD11C,0.152400*%
%ADD12C,0.200000*%
%ADD13C,0.127000*%
%ADD14C,0.025400*%
%ADD15RoundRect,0.102000X-0.650000X-1.525000X0.650000X-1.525000X0.650000X1.525000X-0.650000X1.525000X0*%
%ADD16RoundRect,0.102000X-0.150000X-0.400000X0.150000X-0.400000X0.150000X0.400000X-0.150000X0.400000X0*%
%ADD17RoundRect,0.102000X-0.600000X-1.375000X0.600000X-1.375000X0.600000X1.375000X-0.600000X1.375000X0*%
%ADD18RoundRect,0.102000X-0.150000X-0.775000X0.150000X-0.775000X0.150000X0.775000X-0.150000X0.775000X0*%
%ADD19C,1.650000*%
%ADD20C,1.150000*%
%ADD21C,2.100000*%
%ADD22C,3.000000*%
G04 APERTURE END LIST*
D10*
X140565066Y-105104819D02*
X140565066Y-105819104D01*
X140565066Y-105819104D02*
X140517447Y-105961961D01*
X140517447Y-105961961D02*
X140422209Y-106057200D01*
X140422209Y-106057200D02*
X140279352Y-106104819D01*
X140279352Y-106104819D02*
X140184114Y-106104819D01*
X141565066Y-106104819D02*
X140993638Y-106104819D01*
X141279352Y-106104819D02*
X141279352Y-105104819D01*
X141279352Y-105104819D02*
X141184114Y-105247676D01*
X141184114Y-105247676D02*
X141088876Y-105342914D01*
X141088876Y-105342914D02*
X140993638Y-105390533D01*
X132246971Y-103834819D02*
X131770781Y-103834819D01*
X131770781Y-103834819D02*
X131723162Y-104311009D01*
X131723162Y-104311009D02*
X131770781Y-104263390D01*
X131770781Y-104263390D02*
X131866019Y-104215771D01*
X131866019Y-104215771D02*
X132104114Y-104215771D01*
X132104114Y-104215771D02*
X132199352Y-104263390D01*
X132199352Y-104263390D02*
X132246971Y-104311009D01*
X132246971Y-104311009D02*
X132294590Y-104406247D01*
X132294590Y-104406247D02*
X132294590Y-104644342D01*
X132294590Y-104644342D02*
X132246971Y-104739580D01*
X132246971Y-104739580D02*
X132199352Y-104787200D01*
X132199352Y-104787200D02*
X132104114Y-104834819D01*
X132104114Y-104834819D02*
X131866019Y-104834819D01*
X131866019Y-104834819D02*
X131770781Y-104787200D01*
X131770781Y-104787200D02*
X131723162Y-104739580D01*
X132675543Y-103930057D02*
X132723162Y-103882438D01*
X132723162Y-103882438D02*
X132818400Y-103834819D01*
X132818400Y-103834819D02*
X133056495Y-103834819D01*
X133056495Y-103834819D02*
X133151733Y-103882438D01*
X133151733Y-103882438D02*
X133199352Y-103930057D01*
X133199352Y-103930057D02*
X133246971Y-104025295D01*
X133246971Y-104025295D02*
X133246971Y-104120533D01*
X133246971Y-104120533D02*
X133199352Y-104263390D01*
X133199352Y-104263390D02*
X132627924Y-104834819D01*
X132627924Y-104834819D02*
X133246971Y-104834819D01*
X133580305Y-103834819D02*
X134246971Y-103834819D01*
X134246971Y-103834819D02*
X133818400Y-104834819D01*
X135056495Y-104168152D02*
X135056495Y-104834819D01*
X134818400Y-103787200D02*
X134580305Y-104501485D01*
X134580305Y-104501485D02*
X135199352Y-104501485D01*
X136008876Y-103834819D02*
X135818400Y-103834819D01*
X135818400Y-103834819D02*
X135723162Y-103882438D01*
X135723162Y-103882438D02*
X135675543Y-103930057D01*
X135675543Y-103930057D02*
X135580305Y-104072914D01*
X135580305Y-104072914D02*
X135532686Y-104263390D01*
X135532686Y-104263390D02*
X135532686Y-104644342D01*
X135532686Y-104644342D02*
X135580305Y-104739580D01*
X135580305Y-104739580D02*
X135627924Y-104787200D01*
X135627924Y-104787200D02*
X135723162Y-104834819D01*
X135723162Y-104834819D02*
X135913638Y-104834819D01*
X135913638Y-104834819D02*
X136008876Y-104787200D01*
X136008876Y-104787200D02*
X136056495Y-104739580D01*
X136056495Y-104739580D02*
X136104114Y-104644342D01*
X136104114Y-104644342D02*
X136104114Y-104406247D01*
X136104114Y-104406247D02*
X136056495Y-104311009D01*
X136056495Y-104311009D02*
X136008876Y-104263390D01*
X136008876Y-104263390D02*
X135913638Y-104215771D01*
X135913638Y-104215771D02*
X135723162Y-104215771D01*
X135723162Y-104215771D02*
X135627924Y-104263390D01*
X135627924Y-104263390D02*
X135580305Y-104311009D01*
X135580305Y-104311009D02*
X135532686Y-104406247D01*
X137056495Y-104834819D02*
X136485067Y-104834819D01*
X136770781Y-104834819D02*
X136770781Y-103834819D01*
X136770781Y-103834819D02*
X136675543Y-103977676D01*
X136675543Y-103977676D02*
X136580305Y-104072914D01*
X136580305Y-104072914D02*
X136485067Y-104120533D01*
X137627924Y-104263390D02*
X137532686Y-104215771D01*
X137532686Y-104215771D02*
X137485067Y-104168152D01*
X137485067Y-104168152D02*
X137437448Y-104072914D01*
X137437448Y-104072914D02*
X137437448Y-104025295D01*
X137437448Y-104025295D02*
X137485067Y-103930057D01*
X137485067Y-103930057D02*
X137532686Y-103882438D01*
X137532686Y-103882438D02*
X137627924Y-103834819D01*
X137627924Y-103834819D02*
X137818400Y-103834819D01*
X137818400Y-103834819D02*
X137913638Y-103882438D01*
X137913638Y-103882438D02*
X137961257Y-103930057D01*
X137961257Y-103930057D02*
X138008876Y-104025295D01*
X138008876Y-104025295D02*
X138008876Y-104072914D01*
X138008876Y-104072914D02*
X137961257Y-104168152D01*
X137961257Y-104168152D02*
X137913638Y-104215771D01*
X137913638Y-104215771D02*
X137818400Y-104263390D01*
X137818400Y-104263390D02*
X137627924Y-104263390D01*
X137627924Y-104263390D02*
X137532686Y-104311009D01*
X137532686Y-104311009D02*
X137485067Y-104358628D01*
X137485067Y-104358628D02*
X137437448Y-104453866D01*
X137437448Y-104453866D02*
X137437448Y-104644342D01*
X137437448Y-104644342D02*
X137485067Y-104739580D01*
X137485067Y-104739580D02*
X137532686Y-104787200D01*
X137532686Y-104787200D02*
X137627924Y-104834819D01*
X137627924Y-104834819D02*
X137818400Y-104834819D01*
X137818400Y-104834819D02*
X137913638Y-104787200D01*
X137913638Y-104787200D02*
X137961257Y-104739580D01*
X137961257Y-104739580D02*
X138008876Y-104644342D01*
X138008876Y-104644342D02*
X138008876Y-104453866D01*
X138008876Y-104453866D02*
X137961257Y-104358628D01*
X137961257Y-104358628D02*
X137913638Y-104311009D01*
X137913638Y-104311009D02*
X137818400Y-104263390D01*
X138342210Y-103834819D02*
X139008876Y-103834819D01*
X139008876Y-103834819D02*
X138580305Y-104834819D01*
X139580305Y-103834819D02*
X139675543Y-103834819D01*
X139675543Y-103834819D02*
X139770781Y-103882438D01*
X139770781Y-103882438D02*
X139818400Y-103930057D01*
X139818400Y-103930057D02*
X139866019Y-104025295D01*
X139866019Y-104025295D02*
X139913638Y-104215771D01*
X139913638Y-104215771D02*
X139913638Y-104453866D01*
X139913638Y-104453866D02*
X139866019Y-104644342D01*
X139866019Y-104644342D02*
X139818400Y-104739580D01*
X139818400Y-104739580D02*
X139770781Y-104787200D01*
X139770781Y-104787200D02*
X139675543Y-104834819D01*
X139675543Y-104834819D02*
X139580305Y-104834819D01*
X139580305Y-104834819D02*
X139485067Y-104787200D01*
X139485067Y-104787200D02*
X139437448Y-104739580D01*
X139437448Y-104739580D02*
X139389829Y-104644342D01*
X139389829Y-104644342D02*
X139342210Y-104453866D01*
X139342210Y-104453866D02*
X139342210Y-104215771D01*
X139342210Y-104215771D02*
X139389829Y-104025295D01*
X139389829Y-104025295D02*
X139437448Y-103930057D01*
X139437448Y-103930057D02*
X139485067Y-103882438D01*
X139485067Y-103882438D02*
X139580305Y-103834819D01*
X128518666Y-93913819D02*
X128518666Y-94628104D01*
X128518666Y-94628104D02*
X128471047Y-94770961D01*
X128471047Y-94770961D02*
X128375809Y-94866200D01*
X128375809Y-94866200D02*
X128232952Y-94913819D01*
X128232952Y-94913819D02*
X128137714Y-94913819D01*
X128947238Y-94009057D02*
X128994857Y-93961438D01*
X128994857Y-93961438D02*
X129090095Y-93913819D01*
X129090095Y-93913819D02*
X129328190Y-93913819D01*
X129328190Y-93913819D02*
X129423428Y-93961438D01*
X129423428Y-93961438D02*
X129471047Y-94009057D01*
X129471047Y-94009057D02*
X129518666Y-94104295D01*
X129518666Y-94104295D02*
X129518666Y-94199533D01*
X129518666Y-94199533D02*
X129471047Y-94342390D01*
X129471047Y-94342390D02*
X128899619Y-94913819D01*
X128899619Y-94913819D02*
X129518666Y-94913819D01*
X135416666Y-55404819D02*
X135083333Y-54928628D01*
X134845238Y-55404819D02*
X134845238Y-54404819D01*
X134845238Y-54404819D02*
X135226190Y-54404819D01*
X135226190Y-54404819D02*
X135321428Y-54452438D01*
X135321428Y-54452438D02*
X135369047Y-54500057D01*
X135369047Y-54500057D02*
X135416666Y-54595295D01*
X135416666Y-54595295D02*
X135416666Y-54738152D01*
X135416666Y-54738152D02*
X135369047Y-54833390D01*
X135369047Y-54833390D02*
X135321428Y-54881009D01*
X135321428Y-54881009D02*
X135226190Y-54928628D01*
X135226190Y-54928628D02*
X134845238Y-54928628D01*
X135845238Y-54881009D02*
X136178571Y-54881009D01*
X136321428Y-55404819D02*
X135845238Y-55404819D01*
X135845238Y-55404819D02*
X135845238Y-54404819D01*
X135845238Y-54404819D02*
X136321428Y-54404819D01*
X137083333Y-54881009D02*
X136750000Y-54881009D01*
X136750000Y-55404819D02*
X136750000Y-54404819D01*
X136750000Y-54404819D02*
X137226190Y-54404819D01*
X137750000Y-54404819D02*
X137750000Y-54642914D01*
X137511905Y-54547676D02*
X137750000Y-54642914D01*
X137750000Y-54642914D02*
X137988095Y-54547676D01*
X137607143Y-54833390D02*
X137750000Y-54642914D01*
X137750000Y-54642914D02*
X137892857Y-54833390D01*
X138511905Y-54404819D02*
X138511905Y-54642914D01*
X138273810Y-54547676D02*
X138511905Y-54642914D01*
X138511905Y-54642914D02*
X138750000Y-54547676D01*
X138369048Y-54833390D02*
X138511905Y-54642914D01*
X138511905Y-54642914D02*
X138654762Y-54833390D01*
X135416666Y-67404819D02*
X135083333Y-66928628D01*
X134845238Y-67404819D02*
X134845238Y-66404819D01*
X134845238Y-66404819D02*
X135226190Y-66404819D01*
X135226190Y-66404819D02*
X135321428Y-66452438D01*
X135321428Y-66452438D02*
X135369047Y-66500057D01*
X135369047Y-66500057D02*
X135416666Y-66595295D01*
X135416666Y-66595295D02*
X135416666Y-66738152D01*
X135416666Y-66738152D02*
X135369047Y-66833390D01*
X135369047Y-66833390D02*
X135321428Y-66881009D01*
X135321428Y-66881009D02*
X135226190Y-66928628D01*
X135226190Y-66928628D02*
X134845238Y-66928628D01*
X135845238Y-66881009D02*
X136178571Y-66881009D01*
X136321428Y-67404819D02*
X135845238Y-67404819D01*
X135845238Y-67404819D02*
X135845238Y-66404819D01*
X135845238Y-66404819D02*
X136321428Y-66404819D01*
X137083333Y-66881009D02*
X136750000Y-66881009D01*
X136750000Y-67404819D02*
X136750000Y-66404819D01*
X136750000Y-66404819D02*
X137226190Y-66404819D01*
X137750000Y-66404819D02*
X137750000Y-66642914D01*
X137511905Y-66547676D02*
X137750000Y-66642914D01*
X137750000Y-66642914D02*
X137988095Y-66547676D01*
X137607143Y-66833390D02*
X137750000Y-66642914D01*
X137750000Y-66642914D02*
X137892857Y-66833390D01*
X138511905Y-66404819D02*
X138511905Y-66642914D01*
X138273810Y-66547676D02*
X138511905Y-66642914D01*
X138511905Y-66642914D02*
X138750000Y-66547676D01*
X138369048Y-66833390D02*
X138511905Y-66642914D01*
X138511905Y-66642914D02*
X138654762Y-66833390D01*
X151166666Y-50004819D02*
X150833333Y-49528628D01*
X150595238Y-50004819D02*
X150595238Y-49004819D01*
X150595238Y-49004819D02*
X150976190Y-49004819D01*
X150976190Y-49004819D02*
X151071428Y-49052438D01*
X151071428Y-49052438D02*
X151119047Y-49100057D01*
X151119047Y-49100057D02*
X151166666Y-49195295D01*
X151166666Y-49195295D02*
X151166666Y-49338152D01*
X151166666Y-49338152D02*
X151119047Y-49433390D01*
X151119047Y-49433390D02*
X151071428Y-49481009D01*
X151071428Y-49481009D02*
X150976190Y-49528628D01*
X150976190Y-49528628D02*
X150595238Y-49528628D01*
X151595238Y-49481009D02*
X151928571Y-49481009D01*
X152071428Y-50004819D02*
X151595238Y-50004819D01*
X151595238Y-50004819D02*
X151595238Y-49004819D01*
X151595238Y-49004819D02*
X152071428Y-49004819D01*
X152833333Y-49481009D02*
X152500000Y-49481009D01*
X152500000Y-50004819D02*
X152500000Y-49004819D01*
X152500000Y-49004819D02*
X152976190Y-49004819D01*
X153500000Y-49004819D02*
X153500000Y-49242914D01*
X153261905Y-49147676D02*
X153500000Y-49242914D01*
X153500000Y-49242914D02*
X153738095Y-49147676D01*
X153357143Y-49433390D02*
X153500000Y-49242914D01*
X153500000Y-49242914D02*
X153642857Y-49433390D01*
X154261905Y-49004819D02*
X154261905Y-49242914D01*
X154023810Y-49147676D02*
X154261905Y-49242914D01*
X154261905Y-49242914D02*
X154500000Y-49147676D01*
X154119048Y-49433390D02*
X154261905Y-49242914D01*
X154261905Y-49242914D02*
X154404762Y-49433390D01*
X128166666Y-50004819D02*
X127833333Y-49528628D01*
X127595238Y-50004819D02*
X127595238Y-49004819D01*
X127595238Y-49004819D02*
X127976190Y-49004819D01*
X127976190Y-49004819D02*
X128071428Y-49052438D01*
X128071428Y-49052438D02*
X128119047Y-49100057D01*
X128119047Y-49100057D02*
X128166666Y-49195295D01*
X128166666Y-49195295D02*
X128166666Y-49338152D01*
X128166666Y-49338152D02*
X128119047Y-49433390D01*
X128119047Y-49433390D02*
X128071428Y-49481009D01*
X128071428Y-49481009D02*
X127976190Y-49528628D01*
X127976190Y-49528628D02*
X127595238Y-49528628D01*
X128595238Y-49481009D02*
X128928571Y-49481009D01*
X129071428Y-50004819D02*
X128595238Y-50004819D01*
X128595238Y-50004819D02*
X128595238Y-49004819D01*
X128595238Y-49004819D02*
X129071428Y-49004819D01*
X129833333Y-49481009D02*
X129500000Y-49481009D01*
X129500000Y-50004819D02*
X129500000Y-49004819D01*
X129500000Y-49004819D02*
X129976190Y-49004819D01*
X130500000Y-49004819D02*
X130500000Y-49242914D01*
X130261905Y-49147676D02*
X130500000Y-49242914D01*
X130500000Y-49242914D02*
X130738095Y-49147676D01*
X130357143Y-49433390D02*
X130500000Y-49242914D01*
X130500000Y-49242914D02*
X130642857Y-49433390D01*
X131261905Y-49004819D02*
X131261905Y-49242914D01*
X131023810Y-49147676D02*
X131261905Y-49242914D01*
X131261905Y-49242914D02*
X131500000Y-49147676D01*
X131119048Y-49433390D02*
X131261905Y-49242914D01*
X131261905Y-49242914D02*
X131404762Y-49433390D01*
X128166666Y-108004819D02*
X127833333Y-107528628D01*
X127595238Y-108004819D02*
X127595238Y-107004819D01*
X127595238Y-107004819D02*
X127976190Y-107004819D01*
X127976190Y-107004819D02*
X128071428Y-107052438D01*
X128071428Y-107052438D02*
X128119047Y-107100057D01*
X128119047Y-107100057D02*
X128166666Y-107195295D01*
X128166666Y-107195295D02*
X128166666Y-107338152D01*
X128166666Y-107338152D02*
X128119047Y-107433390D01*
X128119047Y-107433390D02*
X128071428Y-107481009D01*
X128071428Y-107481009D02*
X127976190Y-107528628D01*
X127976190Y-107528628D02*
X127595238Y-107528628D01*
X128595238Y-107481009D02*
X128928571Y-107481009D01*
X129071428Y-108004819D02*
X128595238Y-108004819D01*
X128595238Y-108004819D02*
X128595238Y-107004819D01*
X128595238Y-107004819D02*
X129071428Y-107004819D01*
X129833333Y-107481009D02*
X129500000Y-107481009D01*
X129500000Y-108004819D02*
X129500000Y-107004819D01*
X129500000Y-107004819D02*
X129976190Y-107004819D01*
X130500000Y-107004819D02*
X130500000Y-107242914D01*
X130261905Y-107147676D02*
X130500000Y-107242914D01*
X130500000Y-107242914D02*
X130738095Y-107147676D01*
X130357143Y-107433390D02*
X130500000Y-107242914D01*
X130500000Y-107242914D02*
X130642857Y-107433390D01*
X131261905Y-107004819D02*
X131261905Y-107242914D01*
X131023810Y-107147676D02*
X131261905Y-107242914D01*
X131261905Y-107242914D02*
X131500000Y-107147676D01*
X131119048Y-107433390D02*
X131261905Y-107242914D01*
X131261905Y-107242914D02*
X131404762Y-107433390D01*
%TO.C,J1*%
D11*
X148543800Y-114489200D02*
X148543800Y-112508000D01*
X148543800Y-109510800D02*
X145724400Y-109510800D01*
X137774200Y-107580400D02*
X136758200Y-108774200D01*
X136275600Y-109510800D02*
X133456200Y-109510800D01*
X135742200Y-107580400D02*
X137774200Y-107580400D01*
X135742200Y-107580400D02*
X136758200Y-108774200D01*
X133456200Y-114489200D02*
X148543800Y-114489200D01*
X133456200Y-112508000D02*
X133456200Y-114489200D01*
%TO.C,J2*%
D12*
X127600000Y-96106000D02*
G75*
G02*
X127400000Y-96106000I-100000J0D01*
G01*
X127400000Y-96106000D02*
G75*
G02*
X127600000Y-96106000I100000J0D01*
G01*
D13*
X147700000Y-104945000D02*
X147700000Y-103920000D01*
X147700000Y-104945000D02*
X146220000Y-104945000D01*
X147700000Y-99970000D02*
X147700000Y-101630000D01*
X127280000Y-104945000D02*
X125800000Y-104945000D01*
X125800000Y-104945000D02*
X125800000Y-99970000D01*
%TD*%
%LPC*%
D14*
%TO.C,J1*%
X147800000Y-110000000D02*
X148900000Y-110000000D01*
X148900000Y-112200000D01*
X147800000Y-112200000D01*
X147800000Y-110000000D01*
G36*
X148900000Y-112200000D02*
G01*
X147800000Y-112200000D01*
X147800000Y-110000000D01*
X148900000Y-110000000D01*
X148900000Y-112200000D01*
G37*
X134200000Y-110000000D02*
X133100000Y-110000000D01*
X133100000Y-112200000D01*
X134200000Y-112200000D01*
X134200000Y-110000000D01*
G36*
X134200000Y-112200000D02*
G01*
X133100000Y-112200000D01*
X133100000Y-110000000D01*
X134200000Y-110000000D01*
X134200000Y-112200000D01*
G37*
%TD*%
D15*
%TO.C,J1*%
X147149990Y-111525000D03*
X134850010Y-111525000D03*
D16*
X145250010Y-109600000D03*
X144750010Y-109600000D03*
X144250010Y-109600000D03*
X143750010Y-109600000D03*
X143250010Y-109600000D03*
X142750010Y-109600000D03*
X142250010Y-109600000D03*
X141750009Y-109600000D03*
X141250009Y-109600000D03*
X140750009Y-109600000D03*
X140250009Y-109600000D03*
X139750010Y-109600000D03*
X139250010Y-109600000D03*
X138750010Y-109600000D03*
X138250010Y-109600000D03*
X137750010Y-109600000D03*
X137250010Y-109600000D03*
X136750010Y-109600000D03*
%TD*%
D17*
%TO.C,J2*%
X147100000Y-98275000D03*
X126400000Y-98275000D03*
D18*
X146000000Y-97500000D03*
X145750000Y-105050000D03*
X145500000Y-97500000D03*
X145250000Y-105050000D03*
X145000000Y-97500000D03*
X144750000Y-105050000D03*
X144500000Y-97500000D03*
X144250000Y-105050000D03*
X144000000Y-97500000D03*
X141750000Y-105050000D03*
X141500000Y-97500000D03*
X141250000Y-105050000D03*
X141000000Y-97500000D03*
X140750000Y-105050000D03*
X140500000Y-97500000D03*
X140250000Y-105050000D03*
X140000000Y-97500000D03*
X139750000Y-105050000D03*
X139500000Y-97500000D03*
X139250000Y-105050000D03*
X139000000Y-97500000D03*
X138750000Y-105050000D03*
X138500000Y-97500000D03*
X138250000Y-105050000D03*
X138000000Y-97500000D03*
X137750000Y-105050000D03*
X137500000Y-97500000D03*
X137250000Y-105050000D03*
X137000000Y-97500000D03*
X136750000Y-105050000D03*
X136500000Y-97500000D03*
X136250000Y-105050000D03*
X136000000Y-97500000D03*
X135750000Y-105050000D03*
X135500000Y-97500000D03*
X135250000Y-105050000D03*
X135000000Y-97500000D03*
X134750000Y-105050000D03*
X134500000Y-97500000D03*
X134250000Y-105050000D03*
X134000000Y-97500000D03*
X133750000Y-105050000D03*
X133500000Y-97500000D03*
X133250000Y-105050000D03*
X133000000Y-97500000D03*
X132750000Y-105050000D03*
X132500000Y-97500000D03*
X132250000Y-105050000D03*
X132000000Y-97500000D03*
X131750000Y-105050000D03*
X131500000Y-97500000D03*
X131250000Y-105050000D03*
X131000000Y-97500000D03*
X130750000Y-105050000D03*
X130500000Y-97500000D03*
X130250000Y-105050000D03*
X130000000Y-97500000D03*
X129750000Y-105050000D03*
X129500000Y-97500000D03*
X129250000Y-105050000D03*
X129000000Y-97500000D03*
X128750000Y-105050000D03*
X128500000Y-97500000D03*
X128250000Y-105050000D03*
X128000000Y-97500000D03*
X127750000Y-105050000D03*
X127500000Y-97500000D03*
D19*
X146750000Y-102775000D03*
D20*
X126750000Y-102775000D03*
%TD*%
D21*
%TO.C,REF\u002A\u002A*%
X136750000Y-58000000D03*
%TD*%
%TO.C,REF\u002A\u002A*%
X136750000Y-70000000D03*
%TD*%
D22*
%TO.C,REF\u002A\u002A*%
X152500000Y-53500000D03*
%TD*%
%TO.C,REF\u002A\u002A*%
X152500000Y-111500000D03*
%TD*%
%TO.C,REF\u002A\u002A*%
X129500000Y-53500000D03*
%TD*%
%TO.C,REF\u002A\u002A*%
X129500000Y-111500000D03*
%TD*%
%LPD*%
M02*
