%TF.GenerationSoftware,KiCad,Pcbnew,10.0.5*%
%TF.CreationDate,2026-07-30T21:37:16-04:00*%
%TF.ProjectId,zero3w,7a65726f-3377-42e6-9b69-6361645f7063,rev?*%
%TF.SameCoordinates,Original*%
%TF.FileFunction,Copper,L2,Bot*%
%TF.FilePolarity,Positive*%
%FSLAX46Y46*%
G04 Gerber Fmt 4.6, Leading zero omitted, Abs format (unit mm)*
G04 Created by KiCad (PCBNEW 10.0.5) date 2026-07-30 21:37:16*
%MOMM*%
%LPD*%
G01*
G04 APERTURE LIST*
%TA.AperFunction,SMDPad,CuDef*%
%ADD10R,1.410000X1.350000*%
%TD*%
%TA.AperFunction,SMDPad,CuDef*%
%ADD11R,2.350000X3.500000*%
%TD*%
%TA.AperFunction,SMDPad,CuDef*%
%ADD12R,1.485000X1.728000*%
%TD*%
%TA.AperFunction,SMDPad,CuDef*%
%ADD13R,0.599999X0.249999*%
%TD*%
%TA.AperFunction,SMDPad,CuDef*%
%ADD14O,0.599999X0.249999*%
%TD*%
%TA.AperFunction,SMDPad,CuDef*%
%ADD15R,1.639999X0.439999*%
%TD*%
%TA.AperFunction,ViaPad*%
%ADD16C,0.600000*%
%TD*%
%TA.AperFunction,Conductor*%
%ADD17C,0.200000*%
%TD*%
G04 APERTURE END LIST*
D10*
%TO.P,C1,2,2_2*%
%TO.N,GND*%
X130535000Y-97665000D03*
%TO.P,C1,1,1_1*%
%TO.N,/VIN_5V*%
X132535000Y-97665000D03*
%TD*%
%TO.P,C2,2,2_2*%
%TO.N,GND*%
X130535000Y-100615000D03*
%TO.P,C2,1,1_1*%
%TO.N,/VOUT_3V3*%
X132535000Y-100615000D03*
%TD*%
%TO.P,C3,2,2_2*%
%TO.N,GND*%
X130535000Y-103565000D03*
%TO.P,C3,1,1_1*%
%TO.N,/VIN_5V*%
X132535000Y-103565000D03*
%TD*%
D11*
%TO.P,L1,2,2_2*%
%TO.N,/VOUT_3V3*%
X140291190Y-108175000D03*
%TO.P,L1,1,1_1*%
%TO.N,/U1_SW_NODE*%
X145991190Y-108175000D03*
%TD*%
D12*
%TO.P,L2,2,2_2*%
%TO.N,/VIN_5V*%
X130421190Y-105915000D03*
%TO.P,L2,1,1_1*%
%TO.N,/VCC_5V*%
X133601190Y-105915000D03*
%TD*%
D13*
%TO.P,U1,1,EN_1*%
%TO.N,/PCIE_PWREN_H*%
X137816189Y-105240002D03*
D14*
%TO.P,U1,2,PG_2*%
%TO.N,unconnected-(U1-PG-Pad2)*%
X137816189Y-105740000D03*
%TO.P,U1,3,FB_3*%
%TO.N,/VOUT_3V3*%
X137816189Y-106240002D03*
%TO.P,U1,4,VOS_4*%
X137816189Y-106740001D03*
D15*
%TO.P,U1,5,GND_5*%
%TO.N,GND*%
X136466189Y-106590001D03*
%TO.P,U1,6,SW_6*%
%TO.N,/U1_SW_NODE*%
X136466189Y-105990000D03*
%TO.P,U1,7,VIN_7*%
%TO.N,/VIN_5V*%
X136466189Y-105390001D03*
%TD*%
D16*
%TO.N,/VIN_5V*%
X138500000Y-101500000D03*
X138500000Y-103500000D03*
%TO.N,/VOUT_3V3*%
X134500000Y-100500000D03*
X136500000Y-107260002D03*
X142500000Y-103000000D03*
%TO.N,/PCIE_PERSTn*%
X139500000Y-101500000D03*
%TO.N,/PCIE_CLKREQn*%
X140325735Y-100825735D03*
%TO.N,/PCIE_WAKEn*%
X141500000Y-100500000D03*
%TO.N,/VCC_5V*%
X137000000Y-112500000D03*
%TO.N,/PCIE_CLKREQn*%
X144000000Y-112500000D03*
%TO.N,/PCIE_WAKEn*%
X143000000Y-112500000D03*
%TO.N,/PCIE_PWREN_H*%
X142000000Y-112500000D03*
%TO.N,GND*%
X126500000Y-113500000D03*
X156000000Y-114000000D03*
%TO.N,*%
X156000000Y-51000000D03*
X156000000Y-51000000D03*
%TO.N,GND*%
X126000000Y-51000000D03*
X141000000Y-85500000D03*
X141000000Y-85500000D03*
%TO.N,/PCIE_PERSTn*%
X145500000Y-112500000D03*
%TD*%
%TO.N,/VIN_5V*%
D17*
X135500000Y-101500000D02*
X138500000Y-101500000D01*
X135500000Y-101500000D02*
X135500000Y-102500000D01*
X138356190Y-103500000D02*
X138500000Y-103500000D01*
X136466189Y-105390001D02*
X138356190Y-103500000D01*
%TO.N,/VOUT_3V3*%
X134385000Y-100615000D02*
X134500000Y-100500000D01*
X132535000Y-100615000D02*
X134385000Y-100615000D01*
%TO.N,/U1_SW_NODE*%
X137916192Y-102400000D02*
X143900000Y-102400000D01*
X135396190Y-104920002D02*
X137916192Y-102400000D01*
X135396190Y-105940000D02*
X135396190Y-104920002D01*
X143900000Y-102400000D02*
X145991190Y-104491190D01*
X135446190Y-105990000D02*
X135396190Y-105940000D01*
X136466189Y-105990000D02*
X135446190Y-105990000D01*
X145991190Y-104491190D02*
X145991190Y-108175000D01*
%TO.N,GND*%
X129000000Y-103500000D02*
X129065000Y-103565000D01*
X128500000Y-104000000D02*
X129000000Y-103500000D01*
X128500000Y-107000000D02*
X128500000Y-104000000D01*
X129500000Y-108000000D02*
X128500000Y-107000000D01*
X133000000Y-108000000D02*
X129500000Y-108000000D01*
X133000000Y-111500000D02*
X133000000Y-108000000D01*
X134600000Y-113100000D02*
X133000000Y-111500000D01*
X129065000Y-103565000D02*
X130535000Y-103565000D01*
X137600000Y-112748529D02*
X137248529Y-113100000D01*
X135222690Y-106500000D02*
X135222690Y-109874161D01*
X136500000Y-106500000D02*
X135222690Y-106500000D01*
X135222690Y-109874161D02*
X137600000Y-112251471D01*
X137600000Y-112251471D02*
X137600000Y-112748529D01*
X136466189Y-106533811D02*
X136500000Y-106500000D01*
X137248529Y-113100000D02*
X134600000Y-113100000D01*
X136466189Y-106590001D02*
X136466189Y-106533811D01*
%TO.N,/VOUT_3V3*%
X137816189Y-106779999D02*
X137816189Y-106240002D01*
X136500000Y-107260002D02*
X137336186Y-107260002D01*
X137336186Y-107260002D02*
X137816189Y-106779999D01*
X140291190Y-105208810D02*
X142500000Y-103000000D01*
X140291190Y-108175000D02*
X140291190Y-105208810D01*
%TO.N,/VIN_5V*%
X132535000Y-103801190D02*
X130421190Y-105915000D01*
X132535000Y-103565000D02*
X132535000Y-103801190D01*
X135500000Y-102500000D02*
X134435000Y-103565000D01*
X134435000Y-103565000D02*
X132535000Y-103565000D01*
X135500000Y-99000000D02*
X135500000Y-101500000D01*
X134165000Y-97665000D02*
X135500000Y-99000000D01*
X132535000Y-97665000D02*
X134165000Y-97665000D01*
%TO.N,GND*%
X130535000Y-100615000D02*
X130535000Y-97665000D01*
X130535000Y-103565000D02*
X130535000Y-100615000D01*
%TO.N,/VCC_5V*%
X135000000Y-112500000D02*
X133601190Y-111101190D01*
X133601190Y-111101190D02*
X133601190Y-105915000D01*
X137000000Y-112500000D02*
X135000000Y-112500000D01*
%TO.N,/PCIE_PERSTn*%
X148000000Y-101500000D02*
X139500000Y-101500000D01*
X148000000Y-111500000D02*
X148000000Y-101500000D01*
X147000000Y-112500000D02*
X148000000Y-111500000D01*
X145500000Y-112500000D02*
X147000000Y-112500000D01*
%TO.N,/PCIE_CLKREQn*%
X140600000Y-101100000D02*
X140325735Y-100825735D01*
X142834314Y-101100000D02*
X140600000Y-101100000D01*
X142934314Y-101000000D02*
X142834314Y-101100000D01*
X148500000Y-101434315D02*
X148065685Y-101000000D01*
X144600000Y-113100000D02*
X147400000Y-113100000D01*
X144000000Y-112500000D02*
X144600000Y-113100000D01*
X147400000Y-113100000D02*
X148500000Y-112000000D01*
X148500000Y-112000000D02*
X148500000Y-101434315D01*
X148065685Y-101000000D02*
X142934314Y-101000000D01*
%TO.N,/PCIE_WAKEn*%
X148900000Y-101268629D02*
X148131371Y-100500000D01*
X148900000Y-112165685D02*
X148900000Y-101268629D01*
X148131371Y-100500000D02*
X141500000Y-100500000D01*
X147565686Y-113500000D02*
X148900000Y-112165685D01*
X144000000Y-113500000D02*
X147565686Y-113500000D01*
X143000000Y-112500000D02*
X144000000Y-113500000D01*
%TO.N,/PCIE_PWREN_H*%
X138316188Y-105240002D02*
X137816189Y-105240002D01*
X138500000Y-112000000D02*
X138500000Y-105423814D01*
X139000000Y-112500000D02*
X138500000Y-112000000D01*
X138500000Y-105423814D02*
X138316188Y-105240002D01*
X142000000Y-112500000D02*
X139000000Y-112500000D01*
%TD*%
%TA.AperFunction,Conductor*%
%TO.N,GND*%
G36*
X135049391Y-106442884D02*
G01*
X135055870Y-106448916D01*
X135077474Y-106470520D01*
X135077476Y-106470521D01*
X135077480Y-106470524D01*
X135182685Y-106531263D01*
X135214406Y-106549577D01*
X135276539Y-106566226D01*
X135336198Y-106602591D01*
X135366727Y-106665438D01*
X135358432Y-106734813D01*
X135313946Y-106788691D01*
X135247394Y-106809965D01*
X135244444Y-106810000D01*
X135146189Y-106810000D01*
X135146189Y-106857845D01*
X135152590Y-106917373D01*
X135152592Y-106917380D01*
X135202834Y-107052087D01*
X135202838Y-107052094D01*
X135288998Y-107167188D01*
X135289001Y-107167191D01*
X135404095Y-107253351D01*
X135404102Y-107253355D01*
X135538809Y-107303597D01*
X135538816Y-107303599D01*
X135598351Y-107310000D01*
X135598579Y-107310013D01*
X135598629Y-107310030D01*
X135601664Y-107310357D01*
X135601586Y-107311073D01*
X135664473Y-107333245D01*
X135707346Y-107388414D01*
X135713582Y-107409644D01*
X135730261Y-107493493D01*
X135730264Y-107493503D01*
X135790602Y-107639174D01*
X135790609Y-107639187D01*
X135878210Y-107770290D01*
X135878213Y-107770294D01*
X135989707Y-107881788D01*
X135989711Y-107881791D01*
X136120814Y-107969392D01*
X136120827Y-107969399D01*
X136266498Y-108029737D01*
X136266503Y-108029739D01*
X136421153Y-108060501D01*
X136421156Y-108060502D01*
X136421158Y-108060502D01*
X136578844Y-108060502D01*
X136578845Y-108060501D01*
X136733497Y-108029739D01*
X136879179Y-107969396D01*
X136879185Y-107969392D01*
X137010875Y-107881400D01*
X137077553Y-107860522D01*
X137079766Y-107860502D01*
X137249517Y-107860502D01*
X137249533Y-107860503D01*
X137257129Y-107860503D01*
X137415240Y-107860503D01*
X137415243Y-107860503D01*
X137567971Y-107819579D01*
X137618090Y-107790641D01*
X137704902Y-107740522D01*
X137704902Y-107740521D01*
X137711941Y-107736458D01*
X137713453Y-107739078D01*
X137765173Y-107719079D01*
X137833619Y-107733112D01*
X137883612Y-107781921D01*
X137899500Y-107842648D01*
X137899500Y-111913330D01*
X137899499Y-111913348D01*
X137899499Y-111996559D01*
X137879814Y-112063598D01*
X137827010Y-112109353D01*
X137757852Y-112119297D01*
X137694296Y-112090272D01*
X137672397Y-112065450D01*
X137621789Y-111989711D01*
X137621786Y-111989707D01*
X137510292Y-111878213D01*
X137510288Y-111878210D01*
X137379185Y-111790609D01*
X137379172Y-111790602D01*
X137233501Y-111730264D01*
X137233489Y-111730261D01*
X137078845Y-111699500D01*
X137078842Y-111699500D01*
X136921158Y-111699500D01*
X136921155Y-111699500D01*
X136766510Y-111730261D01*
X136766498Y-111730264D01*
X136620827Y-111790602D01*
X136620814Y-111790609D01*
X136489125Y-111878602D01*
X136422447Y-111899480D01*
X136420234Y-111899500D01*
X135300097Y-111899500D01*
X135233058Y-111879815D01*
X135212416Y-111863181D01*
X134238009Y-110888774D01*
X134204524Y-110827451D01*
X134201690Y-110801093D01*
X134201690Y-107403499D01*
X134221375Y-107336460D01*
X134274179Y-107290705D01*
X134325690Y-107279499D01*
X134391561Y-107279499D01*
X134391562Y-107279499D01*
X134451173Y-107273091D01*
X134586021Y-107222796D01*
X134701236Y-107136546D01*
X134787486Y-107021331D01*
X134837781Y-106886483D01*
X134844190Y-106826873D01*
X134844189Y-106536595D01*
X134863873Y-106469558D01*
X134916677Y-106423803D01*
X134985836Y-106413859D01*
X135049391Y-106442884D01*
G37*
%TD.AperFunction*%
%TA.AperFunction,Conductor*%
G36*
X155221905Y-50520185D02*
G01*
X155267660Y-50572989D01*
X155277604Y-50642147D01*
X155269427Y-50671953D01*
X155230263Y-50766502D01*
X155230261Y-50766510D01*
X155199500Y-50921153D01*
X155199500Y-51078846D01*
X155230261Y-51233489D01*
X155230264Y-51233501D01*
X155290602Y-51379172D01*
X155290609Y-51379185D01*
X155378210Y-51510288D01*
X155378213Y-51510292D01*
X155489707Y-51621786D01*
X155489711Y-51621789D01*
X155620814Y-51709390D01*
X155620827Y-51709397D01*
X155717646Y-51749500D01*
X155766503Y-51769737D01*
X155921153Y-51800499D01*
X155921156Y-51800500D01*
X155921158Y-51800500D01*
X156078844Y-51800500D01*
X156078845Y-51800499D01*
X156233497Y-51769737D01*
X156328048Y-51730572D01*
X156397517Y-51723104D01*
X156459996Y-51754379D01*
X156495648Y-51814468D01*
X156499500Y-51845134D01*
X156499500Y-114375500D01*
X156479815Y-114442539D01*
X156427011Y-114488294D01*
X156375500Y-114499500D01*
X125624500Y-114499500D01*
X125557461Y-114479815D01*
X125511706Y-114427011D01*
X125500500Y-114375500D01*
X125500500Y-111385258D01*
X127749500Y-111385258D01*
X127749500Y-111614741D01*
X127764710Y-111730263D01*
X127779452Y-111842238D01*
X127789196Y-111878602D01*
X127838842Y-112063887D01*
X127926650Y-112275876D01*
X127926657Y-112275890D01*
X128041392Y-112474617D01*
X128181081Y-112656661D01*
X128181089Y-112656670D01*
X128343330Y-112818911D01*
X128343338Y-112818918D01*
X128525382Y-112958607D01*
X128525385Y-112958608D01*
X128525388Y-112958611D01*
X128724112Y-113073344D01*
X128724117Y-113073346D01*
X128724123Y-113073349D01*
X128815480Y-113111190D01*
X128936113Y-113161158D01*
X129157762Y-113220548D01*
X129385266Y-113250500D01*
X129385273Y-113250500D01*
X129614727Y-113250500D01*
X129614734Y-113250500D01*
X129842238Y-113220548D01*
X130063887Y-113161158D01*
X130275888Y-113073344D01*
X130474612Y-112958611D01*
X130656661Y-112818919D01*
X130656665Y-112818914D01*
X130656670Y-112818911D01*
X130818911Y-112656670D01*
X130818914Y-112656665D01*
X130818919Y-112656661D01*
X130958611Y-112474612D01*
X131073344Y-112275888D01*
X131161158Y-112063887D01*
X131220548Y-111842238D01*
X131250500Y-111614734D01*
X131250500Y-111385266D01*
X131220548Y-111157762D01*
X131161158Y-110936113D01*
X131073344Y-110724112D01*
X130958611Y-110525388D01*
X130958608Y-110525385D01*
X130958607Y-110525382D01*
X130818918Y-110343338D01*
X130818911Y-110343330D01*
X130656670Y-110181089D01*
X130656661Y-110181081D01*
X130474617Y-110041392D01*
X130459184Y-110032482D01*
X130355944Y-109972876D01*
X130275890Y-109926657D01*
X130275876Y-109926650D01*
X130063887Y-109838842D01*
X129842238Y-109779452D01*
X129804215Y-109774446D01*
X129614741Y-109749500D01*
X129614734Y-109749500D01*
X129385266Y-109749500D01*
X129385258Y-109749500D01*
X129168715Y-109778009D01*
X129157762Y-109779452D01*
X129064076Y-109804554D01*
X128936112Y-109838842D01*
X128724123Y-109926650D01*
X128724109Y-109926657D01*
X128525382Y-110041392D01*
X128343338Y-110181081D01*
X128181081Y-110343338D01*
X128041392Y-110525382D01*
X127926657Y-110724109D01*
X127926650Y-110724123D01*
X127838842Y-110936112D01*
X127779453Y-111157759D01*
X127779451Y-111157770D01*
X127749500Y-111385258D01*
X125500500Y-111385258D01*
X125500500Y-105003135D01*
X129178190Y-105003135D01*
X129178190Y-106826870D01*
X129178191Y-106826876D01*
X129184598Y-106886483D01*
X129234892Y-107021328D01*
X129234896Y-107021335D01*
X129321142Y-107136544D01*
X129321145Y-107136547D01*
X129436354Y-107222793D01*
X129436361Y-107222797D01*
X129571207Y-107273091D01*
X129571206Y-107273091D01*
X129578134Y-107273835D01*
X129630817Y-107279500D01*
X131211562Y-107279499D01*
X131271173Y-107273091D01*
X131406021Y-107222796D01*
X131521236Y-107136546D01*
X131607486Y-107021331D01*
X131657781Y-106886483D01*
X131664190Y-106826873D01*
X131664189Y-105572596D01*
X131683874Y-105505558D01*
X131700503Y-105484921D01*
X132146511Y-105038913D01*
X132207832Y-105005430D01*
X132277524Y-105010414D01*
X132333457Y-105052286D01*
X132357874Y-105117750D01*
X132358190Y-105126596D01*
X132358190Y-106826870D01*
X132358191Y-106826876D01*
X132364598Y-106886483D01*
X132414892Y-107021328D01*
X132414896Y-107021335D01*
X132501142Y-107136544D01*
X132501145Y-107136547D01*
X132616354Y-107222793D01*
X132616361Y-107222797D01*
X132661308Y-107239561D01*
X132751207Y-107273091D01*
X132810817Y-107279500D01*
X132876690Y-107279499D01*
X132943728Y-107299183D01*
X132989484Y-107351986D01*
X133000690Y-107403499D01*
X133000690Y-111014520D01*
X133000689Y-111014538D01*
X133000689Y-111180244D01*
X133000688Y-111180244D01*
X133041613Y-111332975D01*
X133070548Y-111383090D01*
X133070549Y-111383094D01*
X133070550Y-111383094D01*
X133120669Y-111469904D01*
X133120671Y-111469907D01*
X133239539Y-111588775D01*
X133239545Y-111588780D01*
X134515139Y-112864374D01*
X134515149Y-112864385D01*
X134519479Y-112868715D01*
X134519480Y-112868716D01*
X134631284Y-112980520D01*
X134682845Y-113010288D01*
X134718095Y-113030639D01*
X134718097Y-113030641D01*
X134756151Y-113052611D01*
X134768215Y-113059577D01*
X134920943Y-113100500D01*
X136420234Y-113100500D01*
X136487273Y-113120185D01*
X136489125Y-113121398D01*
X136620814Y-113209390D01*
X136620827Y-113209397D01*
X136720060Y-113250500D01*
X136766503Y-113269737D01*
X136921153Y-113300499D01*
X136921156Y-113300500D01*
X136921158Y-113300500D01*
X137078844Y-113300500D01*
X137078845Y-113300499D01*
X137233497Y-113269737D01*
X137352251Y-113220548D01*
X137379172Y-113209397D01*
X137379172Y-113209396D01*
X137379179Y-113209394D01*
X137510289Y-113121789D01*
X137621789Y-113010289D01*
X137709394Y-112879179D01*
X137769737Y-112733497D01*
X137800500Y-112578842D01*
X137800500Y-112448627D01*
X137820185Y-112381588D01*
X137872989Y-112335833D01*
X137942147Y-112325889D01*
X138005703Y-112354914D01*
X138013505Y-112363196D01*
X138013733Y-112362969D01*
X138019480Y-112368716D01*
X138131284Y-112480520D01*
X138131285Y-112480521D01*
X138631284Y-112980520D01*
X138631286Y-112980521D01*
X138631290Y-112980524D01*
X138768209Y-113059573D01*
X138768212Y-113059575D01*
X138768216Y-113059577D01*
X138920943Y-113100501D01*
X138920945Y-113100501D01*
X139086654Y-113100501D01*
X139086670Y-113100500D01*
X141420234Y-113100500D01*
X141487273Y-113120185D01*
X141489125Y-113121398D01*
X141620814Y-113209390D01*
X141620827Y-113209397D01*
X141720060Y-113250500D01*
X141766503Y-113269737D01*
X141921153Y-113300499D01*
X141921156Y-113300500D01*
X141921158Y-113300500D01*
X142078844Y-113300500D01*
X142078845Y-113300499D01*
X142233497Y-113269737D01*
X142379179Y-113209394D01*
X142431110Y-113174694D01*
X142497785Y-113153816D01*
X142565165Y-113172300D01*
X142568863Y-113174676D01*
X142620821Y-113209394D01*
X142620823Y-113209395D01*
X142620825Y-113209396D01*
X142647749Y-113220548D01*
X142766503Y-113269737D01*
X142831147Y-113282595D01*
X142921849Y-113300638D01*
X142983760Y-113333023D01*
X142985336Y-113334571D01*
X143631284Y-113980520D01*
X143631286Y-113980521D01*
X143631290Y-113980524D01*
X143768209Y-114059573D01*
X143768216Y-114059577D01*
X143920943Y-114100501D01*
X143920945Y-114100501D01*
X144086654Y-114100501D01*
X144086670Y-114100500D01*
X147479017Y-114100500D01*
X147479033Y-114100501D01*
X147486629Y-114100501D01*
X147644742Y-114100501D01*
X147644744Y-114100501D01*
X147797471Y-114059577D01*
X147847590Y-114030639D01*
X147934402Y-113980520D01*
X148046206Y-113868716D01*
X148046206Y-113868714D01*
X148056414Y-113858507D01*
X148056416Y-113858503D01*
X149258506Y-112656412D01*
X149258511Y-112656409D01*
X149268714Y-112646205D01*
X149268716Y-112646205D01*
X149380520Y-112534401D01*
X149459577Y-112397469D01*
X149500501Y-112244742D01*
X149500501Y-112086627D01*
X149500501Y-112079032D01*
X149500500Y-112079014D01*
X149500500Y-111385258D01*
X150749500Y-111385258D01*
X150749500Y-111614741D01*
X150764710Y-111730263D01*
X150779452Y-111842238D01*
X150789196Y-111878602D01*
X150838842Y-112063887D01*
X150926650Y-112275876D01*
X150926657Y-112275890D01*
X151041392Y-112474617D01*
X151181081Y-112656661D01*
X151181089Y-112656670D01*
X151343330Y-112818911D01*
X151343338Y-112818918D01*
X151525382Y-112958607D01*
X151525385Y-112958608D01*
X151525388Y-112958611D01*
X151724112Y-113073344D01*
X151724117Y-113073346D01*
X151724123Y-113073349D01*
X151815480Y-113111190D01*
X151936113Y-113161158D01*
X152157762Y-113220548D01*
X152385266Y-113250500D01*
X152385273Y-113250500D01*
X152614727Y-113250500D01*
X152614734Y-113250500D01*
X152842238Y-113220548D01*
X153063887Y-113161158D01*
X153275888Y-113073344D01*
X153474612Y-112958611D01*
X153656661Y-112818919D01*
X153656665Y-112818914D01*
X153656670Y-112818911D01*
X153818911Y-112656670D01*
X153818914Y-112656665D01*
X153818919Y-112656661D01*
X153958611Y-112474612D01*
X154073344Y-112275888D01*
X154161158Y-112063887D01*
X154220548Y-111842238D01*
X154250500Y-111614734D01*
X154250500Y-111385266D01*
X154220548Y-111157762D01*
X154161158Y-110936113D01*
X154073344Y-110724112D01*
X153958611Y-110525388D01*
X153958608Y-110525385D01*
X153958607Y-110525382D01*
X153818918Y-110343338D01*
X153818911Y-110343330D01*
X153656670Y-110181089D01*
X153656661Y-110181081D01*
X153474617Y-110041392D01*
X153459184Y-110032482D01*
X153355944Y-109972876D01*
X153275890Y-109926657D01*
X153275876Y-109926650D01*
X153063887Y-109838842D01*
X152842238Y-109779452D01*
X152804215Y-109774446D01*
X152614741Y-109749500D01*
X152614734Y-109749500D01*
X152385266Y-109749500D01*
X152385258Y-109749500D01*
X152168715Y-109778009D01*
X152157762Y-109779452D01*
X152064076Y-109804554D01*
X151936112Y-109838842D01*
X151724123Y-109926650D01*
X151724109Y-109926657D01*
X151525382Y-110041392D01*
X151343338Y-110181081D01*
X151181081Y-110343338D01*
X151041392Y-110525382D01*
X150926657Y-110724109D01*
X150926650Y-110724123D01*
X150838842Y-110936112D01*
X150779453Y-111157759D01*
X150779451Y-111157770D01*
X150749500Y-111385258D01*
X149500500Y-111385258D01*
X149500500Y-101357689D01*
X149500501Y-101357676D01*
X149500501Y-101189573D01*
X149459576Y-101036843D01*
X149459573Y-101036838D01*
X149380524Y-100899919D01*
X149380518Y-100899911D01*
X148618961Y-100138355D01*
X148618959Y-100138352D01*
X148500088Y-100019481D01*
X148500087Y-100019480D01*
X148413275Y-99969360D01*
X148413275Y-99969359D01*
X148413271Y-99969358D01*
X148363156Y-99940423D01*
X148210428Y-99899499D01*
X148052314Y-99899499D01*
X148044718Y-99899499D01*
X148044702Y-99899500D01*
X142079766Y-99899500D01*
X142012727Y-99879815D01*
X142010875Y-99878602D01*
X141879185Y-99790609D01*
X141879172Y-99790602D01*
X141733501Y-99730264D01*
X141733489Y-99730261D01*
X141578845Y-99699500D01*
X141578842Y-99699500D01*
X141421158Y-99699500D01*
X141421155Y-99699500D01*
X141266510Y-99730261D01*
X141266498Y-99730264D01*
X141120827Y-99790602D01*
X141120814Y-99790609D01*
X140989711Y-99878210D01*
X140989707Y-99878213D01*
X140878213Y-99989707D01*
X140878210Y-99989711D01*
X140830911Y-100060499D01*
X140777298Y-100105304D01*
X140707973Y-100114011D01*
X140680357Y-100106169D01*
X140559236Y-100055999D01*
X140559224Y-100055996D01*
X140404580Y-100025235D01*
X140404577Y-100025235D01*
X140246893Y-100025235D01*
X140246890Y-100025235D01*
X140092245Y-100055996D01*
X140092233Y-100055999D01*
X139946562Y-100116337D01*
X139946549Y-100116344D01*
X139815446Y-100203945D01*
X139815442Y-100203948D01*
X139703948Y-100315442D01*
X139703945Y-100315446D01*
X139616344Y-100446549D01*
X139616337Y-100446562D01*
X139555999Y-100592233D01*
X139555996Y-100592245D01*
X139554515Y-100599691D01*
X139522130Y-100661602D01*
X139461415Y-100696176D01*
X139432898Y-100699500D01*
X139421155Y-100699500D01*
X139266510Y-100730261D01*
X139266498Y-100730264D01*
X139120827Y-100790602D01*
X139120814Y-100790609D01*
X139068891Y-100825304D01*
X139002214Y-100846182D01*
X138934833Y-100827698D01*
X138931109Y-100825304D01*
X138879185Y-100790609D01*
X138879172Y-100790602D01*
X138733501Y-100730264D01*
X138733489Y-100730261D01*
X138578845Y-100699500D01*
X138578842Y-100699500D01*
X138421158Y-100699500D01*
X138421155Y-100699500D01*
X138266510Y-100730261D01*
X138266498Y-100730264D01*
X138120827Y-100790602D01*
X138120814Y-100790609D01*
X137989125Y-100878602D01*
X137922447Y-100899480D01*
X137920234Y-100899500D01*
X136224500Y-100899500D01*
X136157461Y-100879815D01*
X136111706Y-100827011D01*
X136100500Y-100775500D01*
X136100500Y-98920945D01*
X136100500Y-98920943D01*
X136059577Y-98768215D01*
X136018776Y-98697546D01*
X135980520Y-98631284D01*
X135868716Y-98519480D01*
X135868715Y-98519479D01*
X135864385Y-98515149D01*
X135864374Y-98515139D01*
X134652590Y-97303355D01*
X134652588Y-97303352D01*
X134533717Y-97184481D01*
X134533716Y-97184480D01*
X134446904Y-97134360D01*
X134446904Y-97134359D01*
X134446900Y-97134358D01*
X134396785Y-97105423D01*
X134244057Y-97064499D01*
X134085943Y-97064499D01*
X134078347Y-97064499D01*
X134078331Y-97064500D01*
X133864499Y-97064500D01*
X133797460Y-97044815D01*
X133751705Y-96992011D01*
X133741562Y-96945388D01*
X133740900Y-96945423D01*
X133740854Y-96945429D01*
X133740853Y-96945426D01*
X133740676Y-96945436D01*
X133740499Y-96942141D01*
X133740499Y-96942128D01*
X133734091Y-96882517D01*
X133683884Y-96747906D01*
X133683797Y-96747671D01*
X133683793Y-96747664D01*
X133597547Y-96632455D01*
X133597544Y-96632452D01*
X133482335Y-96546206D01*
X133482328Y-96546202D01*
X133347482Y-96495908D01*
X133347483Y-96495908D01*
X133287883Y-96489501D01*
X133287881Y-96489500D01*
X133287873Y-96489500D01*
X133287864Y-96489500D01*
X131782129Y-96489500D01*
X131782123Y-96489501D01*
X131722516Y-96495908D01*
X131579359Y-96549303D01*
X131578210Y-96546223D01*
X131525565Y-96557648D01*
X131491213Y-96547563D01*
X131490399Y-96549746D01*
X131347379Y-96496403D01*
X131347372Y-96496401D01*
X131287844Y-96490000D01*
X130785000Y-96490000D01*
X130785000Y-98840000D01*
X131287828Y-98840000D01*
X131287844Y-98839999D01*
X131347372Y-98833598D01*
X131347376Y-98833597D01*
X131490398Y-98780253D01*
X131491647Y-98783603D01*
X131543198Y-98772337D01*
X131578604Y-98782719D01*
X131579359Y-98780697D01*
X131722517Y-98834091D01*
X131722516Y-98834091D01*
X131729444Y-98834835D01*
X131782127Y-98840500D01*
X133287872Y-98840499D01*
X133347483Y-98834091D01*
X133482331Y-98783796D01*
X133597546Y-98697546D01*
X133683796Y-98582331D01*
X133734091Y-98447483D01*
X133740500Y-98387873D01*
X133740500Y-98387844D01*
X133740678Y-98384548D01*
X133741934Y-98384615D01*
X133760185Y-98322461D01*
X133812989Y-98276706D01*
X133864500Y-98265500D01*
X133864903Y-98265500D01*
X133931942Y-98285185D01*
X133952584Y-98301819D01*
X134863181Y-99212416D01*
X134896666Y-99273739D01*
X134899500Y-99300097D01*
X134899500Y-99613444D01*
X134879815Y-99680483D01*
X134827011Y-99726238D01*
X134757853Y-99736182D01*
X134739575Y-99731202D01*
X134739324Y-99732031D01*
X134733500Y-99730264D01*
X134733497Y-99730263D01*
X134733492Y-99730262D01*
X134733489Y-99730261D01*
X134578845Y-99699500D01*
X134578842Y-99699500D01*
X134421158Y-99699500D01*
X134421155Y-99699500D01*
X134266510Y-99730261D01*
X134266498Y-99730264D01*
X134120827Y-99790602D01*
X134120814Y-99790609D01*
X133989711Y-99878210D01*
X133989706Y-99878214D01*
X133946605Y-99921315D01*
X133885282Y-99954799D01*
X133815590Y-99949814D01*
X133759657Y-99907942D01*
X133735635Y-99846882D01*
X133734091Y-99832517D01*
X133683797Y-99697671D01*
X133683793Y-99697664D01*
X133597547Y-99582455D01*
X133597544Y-99582452D01*
X133482335Y-99496206D01*
X133482328Y-99496202D01*
X133347482Y-99445908D01*
X133347483Y-99445908D01*
X133287883Y-99439501D01*
X133287881Y-99439500D01*
X133287873Y-99439500D01*
X133287864Y-99439500D01*
X131782129Y-99439500D01*
X131782123Y-99439501D01*
X131722516Y-99445908D01*
X131579359Y-99499303D01*
X131578210Y-99496223D01*
X131525565Y-99507648D01*
X131491213Y-99497563D01*
X131490399Y-99499746D01*
X131347379Y-99446403D01*
X131347372Y-99446401D01*
X131287844Y-99440000D01*
X130785000Y-99440000D01*
X130785000Y-101790000D01*
X131287828Y-101790000D01*
X131287844Y-101789999D01*
X131347372Y-101783598D01*
X131347376Y-101783597D01*
X131490398Y-101730253D01*
X131491647Y-101733603D01*
X131543198Y-101722337D01*
X131578604Y-101732719D01*
X131579359Y-101730697D01*
X131722517Y-101784091D01*
X131722516Y-101784091D01*
X131729444Y-101784835D01*
X131782127Y-101790500D01*
X133287872Y-101790499D01*
X133347483Y-101784091D01*
X133482331Y-101733796D01*
X133597546Y-101647546D01*
X133683796Y-101532331D01*
X133734091Y-101397483D01*
X133740500Y-101337873D01*
X133740500Y-101337844D01*
X133740678Y-101334548D01*
X133741934Y-101334615D01*
X133760185Y-101272461D01*
X133812989Y-101226706D01*
X133864500Y-101215500D01*
X134110898Y-101215500D01*
X134158349Y-101224938D01*
X134266503Y-101269737D01*
X134266506Y-101269737D01*
X134266511Y-101269739D01*
X134421153Y-101300499D01*
X134421156Y-101300500D01*
X134421158Y-101300500D01*
X134578844Y-101300500D01*
X134578845Y-101300499D01*
X134733497Y-101269737D01*
X134733509Y-101269731D01*
X134739324Y-101267969D01*
X134740158Y-101270720D01*
X134797359Y-101264497D01*
X134859878Y-101295691D01*
X134895608Y-101355734D01*
X134899500Y-101386555D01*
X134899500Y-102199903D01*
X134879815Y-102266942D01*
X134863181Y-102287584D01*
X134222584Y-102928181D01*
X134161261Y-102961666D01*
X134134903Y-102964500D01*
X133864499Y-102964500D01*
X133797460Y-102944815D01*
X133751705Y-102892011D01*
X133741562Y-102845388D01*
X133740900Y-102845423D01*
X133740854Y-102845429D01*
X133740853Y-102845426D01*
X133740676Y-102845436D01*
X133740499Y-102842141D01*
X133740499Y-102842128D01*
X133734091Y-102782517D01*
X133715168Y-102731783D01*
X133683797Y-102647671D01*
X133683793Y-102647664D01*
X133597547Y-102532455D01*
X133597544Y-102532452D01*
X133482335Y-102446206D01*
X133482328Y-102446202D01*
X133347482Y-102395908D01*
X133347483Y-102395908D01*
X133287883Y-102389501D01*
X133287881Y-102389500D01*
X133287873Y-102389500D01*
X133287864Y-102389500D01*
X131782129Y-102389500D01*
X131782123Y-102389501D01*
X131722516Y-102395908D01*
X131579359Y-102449303D01*
X131578210Y-102446223D01*
X131525565Y-102457648D01*
X131491213Y-102447563D01*
X131490399Y-102449746D01*
X131347379Y-102396403D01*
X131347372Y-102396401D01*
X131287844Y-102390000D01*
X130785000Y-102390000D01*
X130785000Y-103441000D01*
X130765315Y-103508039D01*
X130712511Y-103553794D01*
X130661000Y-103565000D01*
X130535000Y-103565000D01*
X130535000Y-103691000D01*
X130515315Y-103758039D01*
X130462511Y-103803794D01*
X130411000Y-103815000D01*
X129330000Y-103815000D01*
X129330000Y-104287844D01*
X129336401Y-104347372D01*
X129336403Y-104347379D01*
X129386645Y-104482086D01*
X129386648Y-104482092D01*
X129390214Y-104486855D01*
X129414630Y-104552320D01*
X129399777Y-104620593D01*
X129365258Y-104660430D01*
X129321142Y-104693455D01*
X129234896Y-104808664D01*
X129234892Y-104808671D01*
X129184598Y-104943517D01*
X129178191Y-105003116D01*
X129178190Y-105003135D01*
X125500500Y-105003135D01*
X125500500Y-102856307D01*
X125924499Y-102856307D01*
X125956222Y-103015783D01*
X125956225Y-103015793D01*
X126018450Y-103166019D01*
X126018452Y-103166023D01*
X126108788Y-103301220D01*
X126108794Y-103301228D01*
X126223771Y-103416205D01*
X126223779Y-103416211D01*
X126358976Y-103506547D01*
X126358980Y-103506549D01*
X126473041Y-103553794D01*
X126509211Y-103568776D01*
X126509215Y-103568776D01*
X126509216Y-103568777D01*
X126668692Y-103600500D01*
X126668695Y-103600500D01*
X126831307Y-103600500D01*
X126940185Y-103578842D01*
X126990789Y-103568776D01*
X127090943Y-103527290D01*
X127141019Y-103506549D01*
X127141023Y-103506547D01*
X127239121Y-103441000D01*
X127276225Y-103416208D01*
X127391208Y-103301225D01*
X127450705Y-103212181D01*
X127481547Y-103166023D01*
X127481549Y-103166019D01*
X127508767Y-103100308D01*
X127543776Y-103015789D01*
X127561203Y-102928181D01*
X127575500Y-102856307D01*
X127575500Y-102842155D01*
X129330000Y-102842155D01*
X129330000Y-103315000D01*
X130285000Y-103315000D01*
X130285000Y-102390000D01*
X129782155Y-102390000D01*
X129722627Y-102396401D01*
X129722620Y-102396403D01*
X129587913Y-102446645D01*
X129587906Y-102446649D01*
X129472812Y-102532809D01*
X129472809Y-102532812D01*
X129386649Y-102647906D01*
X129386645Y-102647913D01*
X129336403Y-102782620D01*
X129336401Y-102782627D01*
X129330000Y-102842155D01*
X127575500Y-102842155D01*
X127575500Y-102693692D01*
X127543777Y-102534216D01*
X127543776Y-102534215D01*
X127543776Y-102534211D01*
X127508606Y-102449303D01*
X127481549Y-102383980D01*
X127481547Y-102383976D01*
X127391211Y-102248779D01*
X127391205Y-102248771D01*
X127276228Y-102133794D01*
X127276220Y-102133788D01*
X127141023Y-102043452D01*
X127141019Y-102043450D01*
X126990793Y-101981225D01*
X126990783Y-101981222D01*
X126831307Y-101949500D01*
X126831305Y-101949500D01*
X126668695Y-101949500D01*
X126668693Y-101949500D01*
X126509216Y-101981222D01*
X126509206Y-101981225D01*
X126358980Y-102043450D01*
X126358976Y-102043452D01*
X126223779Y-102133788D01*
X126223771Y-102133794D01*
X126108794Y-102248771D01*
X126108788Y-102248779D01*
X126018452Y-102383976D01*
X126018450Y-102383980D01*
X125956225Y-102534206D01*
X125956222Y-102534216D01*
X125924500Y-102693692D01*
X125924500Y-102693695D01*
X125924500Y-102856305D01*
X125924500Y-102856307D01*
X125924499Y-102856307D01*
X125500500Y-102856307D01*
X125500500Y-101337844D01*
X129330000Y-101337844D01*
X129336401Y-101397372D01*
X129336403Y-101397379D01*
X129386645Y-101532086D01*
X129386649Y-101532093D01*
X129472809Y-101647187D01*
X129472812Y-101647190D01*
X129587906Y-101733350D01*
X129587913Y-101733354D01*
X129722620Y-101783596D01*
X129722627Y-101783598D01*
X129782155Y-101789999D01*
X129782172Y-101790000D01*
X130285000Y-101790000D01*
X130285000Y-100865000D01*
X129330000Y-100865000D01*
X129330000Y-101337844D01*
X125500500Y-101337844D01*
X125500500Y-99892155D01*
X129330000Y-99892155D01*
X129330000Y-100365000D01*
X130285000Y-100365000D01*
X130285000Y-99440000D01*
X129782155Y-99440000D01*
X129722627Y-99446401D01*
X129722620Y-99446403D01*
X129587913Y-99496645D01*
X129587906Y-99496649D01*
X129472812Y-99582809D01*
X129472809Y-99582812D01*
X129386649Y-99697906D01*
X129386645Y-99697913D01*
X129336403Y-99832620D01*
X129336401Y-99832627D01*
X129330000Y-99892155D01*
X125500500Y-99892155D01*
X125500500Y-98387844D01*
X129330000Y-98387844D01*
X129336401Y-98447372D01*
X129336403Y-98447379D01*
X129386645Y-98582086D01*
X129386649Y-98582093D01*
X129472809Y-98697187D01*
X129472812Y-98697190D01*
X129587906Y-98783350D01*
X129587913Y-98783354D01*
X129722620Y-98833596D01*
X129722627Y-98833598D01*
X129782155Y-98839999D01*
X129782172Y-98840000D01*
X130285000Y-98840000D01*
X130285000Y-97915000D01*
X129330000Y-97915000D01*
X129330000Y-98387844D01*
X125500500Y-98387844D01*
X125500500Y-96942155D01*
X129330000Y-96942155D01*
X129330000Y-97415000D01*
X130285000Y-97415000D01*
X130285000Y-96490000D01*
X129782155Y-96490000D01*
X129722627Y-96496401D01*
X129722620Y-96496403D01*
X129587913Y-96546645D01*
X129587906Y-96546649D01*
X129472812Y-96632809D01*
X129472809Y-96632812D01*
X129386649Y-96747906D01*
X129386645Y-96747913D01*
X129336403Y-96882620D01*
X129336401Y-96882627D01*
X129330000Y-96942155D01*
X125500500Y-96942155D01*
X125500500Y-69897648D01*
X135449500Y-69897648D01*
X135449500Y-70102351D01*
X135481522Y-70304534D01*
X135544781Y-70499223D01*
X135637715Y-70681613D01*
X135758028Y-70847213D01*
X135902786Y-70991971D01*
X136057749Y-71104556D01*
X136068390Y-71112287D01*
X136184607Y-71171503D01*
X136250776Y-71205218D01*
X136250778Y-71205218D01*
X136250781Y-71205220D01*
X136355137Y-71239127D01*
X136445465Y-71268477D01*
X136546557Y-71284488D01*
X136647648Y-71300500D01*
X136647649Y-71300500D01*
X136852351Y-71300500D01*
X136852352Y-71300500D01*
X137054534Y-71268477D01*
X137249219Y-71205220D01*
X137431610Y-71112287D01*
X137524590Y-71044732D01*
X137597213Y-70991971D01*
X137597215Y-70991968D01*
X137597219Y-70991966D01*
X137741966Y-70847219D01*
X137741968Y-70847215D01*
X137741971Y-70847213D01*
X137794732Y-70774590D01*
X137862287Y-70681610D01*
X137955220Y-70499219D01*
X138018477Y-70304534D01*
X138050500Y-70102352D01*
X138050500Y-69897648D01*
X138018477Y-69695466D01*
X137955220Y-69500781D01*
X137955218Y-69500778D01*
X137955218Y-69500776D01*
X137921503Y-69434607D01*
X137862287Y-69318390D01*
X137854556Y-69307749D01*
X137741971Y-69152786D01*
X137597213Y-69008028D01*
X137431613Y-68887715D01*
X137431612Y-68887714D01*
X137431610Y-68887713D01*
X137374653Y-68858691D01*
X137249223Y-68794781D01*
X137054534Y-68731522D01*
X136879995Y-68703878D01*
X136852352Y-68699500D01*
X136647648Y-68699500D01*
X136623329Y-68703351D01*
X136445465Y-68731522D01*
X136250776Y-68794781D01*
X136068386Y-68887715D01*
X135902786Y-69008028D01*
X135758028Y-69152786D01*
X135637715Y-69318386D01*
X135544781Y-69500776D01*
X135481522Y-69695465D01*
X135449500Y-69897648D01*
X125500500Y-69897648D01*
X125500500Y-57897648D01*
X135449500Y-57897648D01*
X135449500Y-58102351D01*
X135481522Y-58304534D01*
X135544781Y-58499223D01*
X135637715Y-58681613D01*
X135758028Y-58847213D01*
X135902786Y-58991971D01*
X136057749Y-59104556D01*
X136068390Y-59112287D01*
X136184607Y-59171503D01*
X136250776Y-59205218D01*
X136250778Y-59205218D01*
X136250781Y-59205220D01*
X136355137Y-59239127D01*
X136445465Y-59268477D01*
X136546557Y-59284488D01*
X136647648Y-59300500D01*
X136647649Y-59300500D01*
X136852351Y-59300500D01*
X136852352Y-59300500D01*
X137054534Y-59268477D01*
X137249219Y-59205220D01*
X137431610Y-59112287D01*
X137524590Y-59044732D01*
X137597213Y-58991971D01*
X137597215Y-58991968D01*
X137597219Y-58991966D01*
X137741966Y-58847219D01*
X137741968Y-58847215D01*
X137741971Y-58847213D01*
X137794732Y-58774590D01*
X137862287Y-58681610D01*
X137955220Y-58499219D01*
X138018477Y-58304534D01*
X138050500Y-58102352D01*
X138050500Y-57897648D01*
X138018477Y-57695466D01*
X137955220Y-57500781D01*
X137955218Y-57500778D01*
X137955218Y-57500776D01*
X137921503Y-57434607D01*
X137862287Y-57318390D01*
X137854556Y-57307749D01*
X137741971Y-57152786D01*
X137597213Y-57008028D01*
X137431613Y-56887715D01*
X137431612Y-56887714D01*
X137431610Y-56887713D01*
X137374653Y-56858691D01*
X137249223Y-56794781D01*
X137054534Y-56731522D01*
X136879995Y-56703878D01*
X136852352Y-56699500D01*
X136647648Y-56699500D01*
X136623329Y-56703351D01*
X136445465Y-56731522D01*
X136250776Y-56794781D01*
X136068386Y-56887715D01*
X135902786Y-57008028D01*
X135758028Y-57152786D01*
X135637715Y-57318386D01*
X135544781Y-57500776D01*
X135481522Y-57695465D01*
X135449500Y-57897648D01*
X125500500Y-57897648D01*
X125500500Y-53385258D01*
X127749500Y-53385258D01*
X127749500Y-53614741D01*
X127774446Y-53804215D01*
X127779452Y-53842238D01*
X127779453Y-53842240D01*
X127838842Y-54063887D01*
X127926650Y-54275876D01*
X127926657Y-54275890D01*
X128041392Y-54474617D01*
X128181081Y-54656661D01*
X128181089Y-54656670D01*
X128343330Y-54818911D01*
X128343338Y-54818918D01*
X128525382Y-54958607D01*
X128525385Y-54958608D01*
X128525388Y-54958611D01*
X128724112Y-55073344D01*
X128724117Y-55073346D01*
X128724123Y-55073349D01*
X128815480Y-55111190D01*
X128936113Y-55161158D01*
X129157762Y-55220548D01*
X129385266Y-55250500D01*
X129385273Y-55250500D01*
X129614727Y-55250500D01*
X129614734Y-55250500D01*
X129842238Y-55220548D01*
X130063887Y-55161158D01*
X130275888Y-55073344D01*
X130474612Y-54958611D01*
X130656661Y-54818919D01*
X130656665Y-54818914D01*
X130656670Y-54818911D01*
X130818911Y-54656670D01*
X130818914Y-54656665D01*
X130818919Y-54656661D01*
X130958611Y-54474612D01*
X131073344Y-54275888D01*
X131161158Y-54063887D01*
X131220548Y-53842238D01*
X131250500Y-53614734D01*
X131250500Y-53385266D01*
X131250499Y-53385258D01*
X150749500Y-53385258D01*
X150749500Y-53614741D01*
X150774446Y-53804215D01*
X150779452Y-53842238D01*
X150779453Y-53842240D01*
X150838842Y-54063887D01*
X150926650Y-54275876D01*
X150926657Y-54275890D01*
X151041392Y-54474617D01*
X151181081Y-54656661D01*
X151181089Y-54656670D01*
X151343330Y-54818911D01*
X151343338Y-54818918D01*
X151525382Y-54958607D01*
X151525385Y-54958608D01*
X151525388Y-54958611D01*
X151724112Y-55073344D01*
X151724117Y-55073346D01*
X151724123Y-55073349D01*
X151815480Y-55111190D01*
X151936113Y-55161158D01*
X152157762Y-55220548D01*
X152385266Y-55250500D01*
X152385273Y-55250500D01*
X152614727Y-55250500D01*
X152614734Y-55250500D01*
X152842238Y-55220548D01*
X153063887Y-55161158D01*
X153275888Y-55073344D01*
X153474612Y-54958611D01*
X153656661Y-54818919D01*
X153656665Y-54818914D01*
X153656670Y-54818911D01*
X153818911Y-54656670D01*
X153818914Y-54656665D01*
X153818919Y-54656661D01*
X153958611Y-54474612D01*
X154073344Y-54275888D01*
X154161158Y-54063887D01*
X154220548Y-53842238D01*
X154250500Y-53614734D01*
X154250500Y-53385266D01*
X154220548Y-53157762D01*
X154161158Y-52936113D01*
X154073344Y-52724112D01*
X153958611Y-52525388D01*
X153958608Y-52525385D01*
X153958607Y-52525382D01*
X153818918Y-52343338D01*
X153818911Y-52343330D01*
X153656670Y-52181089D01*
X153656661Y-52181081D01*
X153474617Y-52041392D01*
X153275890Y-51926657D01*
X153275876Y-51926650D01*
X153063887Y-51838842D01*
X152842238Y-51779452D01*
X152804215Y-51774446D01*
X152614741Y-51749500D01*
X152614734Y-51749500D01*
X152385266Y-51749500D01*
X152385258Y-51749500D01*
X152168715Y-51778009D01*
X152157762Y-51779452D01*
X152079213Y-51800499D01*
X151936112Y-51838842D01*
X151724123Y-51926650D01*
X151724109Y-51926657D01*
X151525382Y-52041392D01*
X151343338Y-52181081D01*
X151181081Y-52343338D01*
X151041392Y-52525382D01*
X150926657Y-52724109D01*
X150926650Y-52724123D01*
X150838842Y-52936112D01*
X150779453Y-53157759D01*
X150779451Y-53157770D01*
X150749500Y-53385258D01*
X131250499Y-53385258D01*
X131220548Y-53157762D01*
X131161158Y-52936113D01*
X131073344Y-52724112D01*
X130958611Y-52525388D01*
X130958608Y-52525385D01*
X130958607Y-52525382D01*
X130818918Y-52343338D01*
X130818911Y-52343330D01*
X130656670Y-52181089D01*
X130656661Y-52181081D01*
X130474617Y-52041392D01*
X130275890Y-51926657D01*
X130275876Y-51926650D01*
X130063887Y-51838842D01*
X129842238Y-51779452D01*
X129804215Y-51774446D01*
X129614741Y-51749500D01*
X129614734Y-51749500D01*
X129385266Y-51749500D01*
X129385258Y-51749500D01*
X129168715Y-51778009D01*
X129157762Y-51779452D01*
X129079213Y-51800499D01*
X128936112Y-51838842D01*
X128724123Y-51926650D01*
X128724109Y-51926657D01*
X128525382Y-52041392D01*
X128343338Y-52181081D01*
X128181081Y-52343338D01*
X128041392Y-52525382D01*
X127926657Y-52724109D01*
X127926650Y-52724123D01*
X127838842Y-52936112D01*
X127779453Y-53157759D01*
X127779451Y-53157770D01*
X127749500Y-53385258D01*
X125500500Y-53385258D01*
X125500500Y-50624500D01*
X125520185Y-50557461D01*
X125572989Y-50511706D01*
X125624500Y-50500500D01*
X155154866Y-50500500D01*
X155221905Y-50520185D01*
G37*
%TD.AperFunction*%
%TD*%
M02*
