%TF.GenerationSoftware,KiCad,Pcbnew,10.0.5*%
%TF.CreationDate,2026-07-30T21:37:16-04:00*%
%TF.ProjectId,zero3w,7a65726f-3377-42e6-9b69-6361645f7063,rev?*%
%TF.SameCoordinates,Original*%
%TF.FileFunction,Soldermask,Top*%
%TF.FilePolarity,Negative*%
%FSLAX46Y46*%
G04 Gerber Fmt 4.6, Leading zero omitted, Abs format (unit mm)*
G04 Created by KiCad (PCBNEW 10.0.5) date 2026-07-30 21:37:16*
%MOMM*%
%LPD*%
G01*
G04 APERTURE LIST*
G04 Aperture macros list*
%AMRoundRect*
0 Rectangle with rounded corners*
0 $1 Rounding radius*
0 $2 $3 $4 $5 $6 $7 $8 $9 X,Y pos of 4 corners*
0 Add a 4 corners polygon primitive as box body*
4,1,4,$2,$3,$4,$5,$6,$7,$8,$9,$2,$3,0*
0 Add four circle primitives for the rounded corners*
1,1,$1+$1,$2,$3*
1,1,$1+$1,$4,$5*
1,1,$1+$1,$6,$7*
1,1,$1+$1,$8,$9*
0 Add four rect primitives between the rounded corners*
20,1,$1+$1,$2,$3,$4,$5,0*
20,1,$1+$1,$4,$5,$6,$7,0*
20,1,$1+$1,$6,$7,$8,$9,0*
20,1,$1+$1,$8,$9,$2,$3,0*%
G04 Aperture macros list end*
%ADD10C,0.025400*%
%ADD11RoundRect,0.102000X-0.650000X-1.525000X0.650000X-1.525000X0.650000X1.525000X-0.650000X1.525000X0*%
%ADD12RoundRect,0.102000X-0.150000X-0.400000X0.150000X-0.400000X0.150000X0.400000X-0.150000X0.400000X0*%
%ADD13RoundRect,0.102000X-0.600000X-1.375000X0.600000X-1.375000X0.600000X1.375000X-0.600000X1.375000X0*%
%ADD14RoundRect,0.102000X-0.150000X-0.775000X0.150000X-0.775000X0.150000X0.775000X-0.150000X0.775000X0*%
%ADD15C,1.650000*%
%ADD16C,1.150000*%
%ADD17C,2.100000*%
%ADD18C,3.000000*%
G04 APERTURE END LIST*
D10*
%TO.C,J1*%
X147800000Y-110000000D02*
X148900000Y-110000000D01*
X148900000Y-112200000D01*
X147800000Y-112200000D01*
X147800000Y-110000000D01*
G36*
X148900000Y-112200000D02*
G01*
X147800000Y-112200000D01*
X147800000Y-110000000D01*
X148900000Y-110000000D01*
X148900000Y-112200000D01*
G37*
X134200000Y-110000000D02*
X133100000Y-110000000D01*
X133100000Y-112200000D01*
X134200000Y-112200000D01*
X134200000Y-110000000D01*
G36*
X134200000Y-112200000D02*
G01*
X133100000Y-112200000D01*
X133100000Y-110000000D01*
X134200000Y-110000000D01*
X134200000Y-112200000D01*
G37*
%TD*%
D11*
%TO.C,J1*%
X147149990Y-111525000D03*
X134850010Y-111525000D03*
D12*
X145250010Y-109600000D03*
X144750010Y-109600000D03*
X144250010Y-109600000D03*
X143750010Y-109600000D03*
X143250010Y-109600000D03*
X142750010Y-109600000D03*
X142250010Y-109600000D03*
X141750009Y-109600000D03*
X141250009Y-109600000D03*
X140750009Y-109600000D03*
X140250009Y-109600000D03*
X139750010Y-109600000D03*
X139250010Y-109600000D03*
X138750010Y-109600000D03*
X138250010Y-109600000D03*
X137750010Y-109600000D03*
X137250010Y-109600000D03*
X136750010Y-109600000D03*
%TD*%
D13*
%TO.C,J2*%
X147100000Y-98275000D03*
X126400000Y-98275000D03*
D14*
X146000000Y-97500000D03*
X145750000Y-105050000D03*
X145500000Y-97500000D03*
X145250000Y-105050000D03*
X145000000Y-97500000D03*
X144750000Y-105050000D03*
X144500000Y-97500000D03*
X144250000Y-105050000D03*
X144000000Y-97500000D03*
X141750000Y-105050000D03*
X141500000Y-97500000D03*
X141250000Y-105050000D03*
X141000000Y-97500000D03*
X140750000Y-105050000D03*
X140500000Y-97500000D03*
X140250000Y-105050000D03*
X140000000Y-97500000D03*
X139750000Y-105050000D03*
X139500000Y-97500000D03*
X139250000Y-105050000D03*
X139000000Y-97500000D03*
X138750000Y-105050000D03*
X138500000Y-97500000D03*
X138250000Y-105050000D03*
X138000000Y-97500000D03*
X137750000Y-105050000D03*
X137500000Y-97500000D03*
X137250000Y-105050000D03*
X137000000Y-97500000D03*
X136750000Y-105050000D03*
X136500000Y-97500000D03*
X136250000Y-105050000D03*
X136000000Y-97500000D03*
X135750000Y-105050000D03*
X135500000Y-97500000D03*
X135250000Y-105050000D03*
X135000000Y-97500000D03*
X134750000Y-105050000D03*
X134500000Y-97500000D03*
X134250000Y-105050000D03*
X134000000Y-97500000D03*
X133750000Y-105050000D03*
X133500000Y-97500000D03*
X133250000Y-105050000D03*
X133000000Y-97500000D03*
X132750000Y-105050000D03*
X132500000Y-97500000D03*
X132250000Y-105050000D03*
X132000000Y-97500000D03*
X131750000Y-105050000D03*
X131500000Y-97500000D03*
X131250000Y-105050000D03*
X131000000Y-97500000D03*
X130750000Y-105050000D03*
X130500000Y-97500000D03*
X130250000Y-105050000D03*
X130000000Y-97500000D03*
X129750000Y-105050000D03*
X129500000Y-97500000D03*
X129250000Y-105050000D03*
X129000000Y-97500000D03*
X128750000Y-105050000D03*
X128500000Y-97500000D03*
X128250000Y-105050000D03*
X128000000Y-97500000D03*
X127750000Y-105050000D03*
X127500000Y-97500000D03*
D15*
X146750000Y-102775000D03*
D16*
X126750000Y-102775000D03*
%TD*%
D17*
%TO.C,REF\u002A\u002A*%
X136750000Y-58000000D03*
%TD*%
%TO.C,REF\u002A\u002A*%
X136750000Y-70000000D03*
%TD*%
D18*
%TO.C,REF\u002A\u002A*%
X152500000Y-53500000D03*
%TD*%
%TO.C,REF\u002A\u002A*%
X152500000Y-111500000D03*
%TD*%
%TO.C,REF\u002A\u002A*%
X129500000Y-53500000D03*
%TD*%
%TO.C,REF\u002A\u002A*%
X129500000Y-111500000D03*
%TD*%
M02*
