%TF.GenerationSoftware,KiCad,Pcbnew,10.0.5*%
%TF.CreationDate,2026-07-30T21:37:16-04:00*%
%TF.ProjectId,zero3w,7a65726f-3377-42e6-9b69-6361645f7063,rev?*%
%TF.SameCoordinates,Original*%
%TF.FileFunction,Legend,Bot*%
%TF.FilePolarity,Positive*%
%FSLAX46Y46*%
G04 Gerber Fmt 4.6, Leading zero omitted, Abs format (unit mm)*
G04 Created by KiCad (PCBNEW 10.0.5) date 2026-07-30 21:37:16*
%MOMM*%
%LPD*%
G01*
G04 APERTURE LIST*
%ADD10C,0.150000*%
%ADD11C,0.060000*%
%ADD12C,0.250000*%
%ADD13C,0.180000*%
%ADD14R,1.410000X1.350000*%
%ADD15C,1.650000*%
%ADD16C,1.150000*%
%ADD17R,2.350000X3.500000*%
%ADD18R,1.485000X1.728000*%
%ADD19C,2.100000*%
%ADD20C,3.000000*%
%ADD21R,0.599999X0.249999*%
%ADD22O,0.599999X0.249999*%
%ADD23R,1.639999X0.439999*%
G04 APERTURE END LIST*
D10*
X131701666Y-94024580D02*
X131749285Y-94072200D01*
X131749285Y-94072200D02*
X131892142Y-94119819D01*
X131892142Y-94119819D02*
X131987380Y-94119819D01*
X131987380Y-94119819D02*
X132130237Y-94072200D01*
X132130237Y-94072200D02*
X132225475Y-93976961D01*
X132225475Y-93976961D02*
X132273094Y-93881723D01*
X132273094Y-93881723D02*
X132320713Y-93691247D01*
X132320713Y-93691247D02*
X132320713Y-93548390D01*
X132320713Y-93548390D02*
X132273094Y-93357914D01*
X132273094Y-93357914D02*
X132225475Y-93262676D01*
X132225475Y-93262676D02*
X132130237Y-93167438D01*
X132130237Y-93167438D02*
X131987380Y-93119819D01*
X131987380Y-93119819D02*
X131892142Y-93119819D01*
X131892142Y-93119819D02*
X131749285Y-93167438D01*
X131749285Y-93167438D02*
X131701666Y-93215057D01*
X130749285Y-94119819D02*
X131320713Y-94119819D01*
X131034999Y-94119819D02*
X131034999Y-93119819D01*
X131034999Y-93119819D02*
X131130237Y-93262676D01*
X131130237Y-93262676D02*
X131225475Y-93357914D01*
X131225475Y-93357914D02*
X131320713Y-93405533D01*
X131701666Y-96974580D02*
X131749285Y-97022200D01*
X131749285Y-97022200D02*
X131892142Y-97069819D01*
X131892142Y-97069819D02*
X131987380Y-97069819D01*
X131987380Y-97069819D02*
X132130237Y-97022200D01*
X132130237Y-97022200D02*
X132225475Y-96926961D01*
X132225475Y-96926961D02*
X132273094Y-96831723D01*
X132273094Y-96831723D02*
X132320713Y-96641247D01*
X132320713Y-96641247D02*
X132320713Y-96498390D01*
X132320713Y-96498390D02*
X132273094Y-96307914D01*
X132273094Y-96307914D02*
X132225475Y-96212676D01*
X132225475Y-96212676D02*
X132130237Y-96117438D01*
X132130237Y-96117438D02*
X131987380Y-96069819D01*
X131987380Y-96069819D02*
X131892142Y-96069819D01*
X131892142Y-96069819D02*
X131749285Y-96117438D01*
X131749285Y-96117438D02*
X131701666Y-96165057D01*
X131320713Y-96165057D02*
X131273094Y-96117438D01*
X131273094Y-96117438D02*
X131177856Y-96069819D01*
X131177856Y-96069819D02*
X130939761Y-96069819D01*
X130939761Y-96069819D02*
X130844523Y-96117438D01*
X130844523Y-96117438D02*
X130796904Y-96165057D01*
X130796904Y-96165057D02*
X130749285Y-96260295D01*
X130749285Y-96260295D02*
X130749285Y-96355533D01*
X130749285Y-96355533D02*
X130796904Y-96498390D01*
X130796904Y-96498390D02*
X131368332Y-97069819D01*
X131368332Y-97069819D02*
X130749285Y-97069819D01*
X131701666Y-99924580D02*
X131749285Y-99972200D01*
X131749285Y-99972200D02*
X131892142Y-100019819D01*
X131892142Y-100019819D02*
X131987380Y-100019819D01*
X131987380Y-100019819D02*
X132130237Y-99972200D01*
X132130237Y-99972200D02*
X132225475Y-99876961D01*
X132225475Y-99876961D02*
X132273094Y-99781723D01*
X132273094Y-99781723D02*
X132320713Y-99591247D01*
X132320713Y-99591247D02*
X132320713Y-99448390D01*
X132320713Y-99448390D02*
X132273094Y-99257914D01*
X132273094Y-99257914D02*
X132225475Y-99162676D01*
X132225475Y-99162676D02*
X132130237Y-99067438D01*
X132130237Y-99067438D02*
X131987380Y-99019819D01*
X131987380Y-99019819D02*
X131892142Y-99019819D01*
X131892142Y-99019819D02*
X131749285Y-99067438D01*
X131749285Y-99067438D02*
X131701666Y-99115057D01*
X131368332Y-99019819D02*
X130749285Y-99019819D01*
X130749285Y-99019819D02*
X131082618Y-99400771D01*
X131082618Y-99400771D02*
X130939761Y-99400771D01*
X130939761Y-99400771D02*
X130844523Y-99448390D01*
X130844523Y-99448390D02*
X130796904Y-99496009D01*
X130796904Y-99496009D02*
X130749285Y-99591247D01*
X130749285Y-99591247D02*
X130749285Y-99829342D01*
X130749285Y-99829342D02*
X130796904Y-99924580D01*
X130796904Y-99924580D02*
X130844523Y-99972200D01*
X130844523Y-99972200D02*
X130939761Y-100019819D01*
X130939761Y-100019819D02*
X131225475Y-100019819D01*
X131225475Y-100019819D02*
X131320713Y-99972200D01*
X131320713Y-99972200D02*
X131368332Y-99924580D01*
X143307856Y-104629819D02*
X143784046Y-104629819D01*
X143784046Y-104629819D02*
X143784046Y-103629819D01*
X142450713Y-104629819D02*
X143022141Y-104629819D01*
X142736427Y-104629819D02*
X142736427Y-103629819D01*
X142736427Y-103629819D02*
X142831665Y-103772676D01*
X142831665Y-103772676D02*
X142926903Y-103867914D01*
X142926903Y-103867914D02*
X143022141Y-103915533D01*
X132177856Y-102369819D02*
X132654046Y-102369819D01*
X132654046Y-102369819D02*
X132654046Y-101369819D01*
X131892141Y-101465057D02*
X131844522Y-101417438D01*
X131844522Y-101417438D02*
X131749284Y-101369819D01*
X131749284Y-101369819D02*
X131511189Y-101369819D01*
X131511189Y-101369819D02*
X131415951Y-101417438D01*
X131415951Y-101417438D02*
X131368332Y-101465057D01*
X131368332Y-101465057D02*
X131320713Y-101560295D01*
X131320713Y-101560295D02*
X131320713Y-101655533D01*
X131320713Y-101655533D02*
X131368332Y-101798390D01*
X131368332Y-101798390D02*
X131939760Y-102369819D01*
X131939760Y-102369819D02*
X131320713Y-102369819D01*
X130569523Y-108004819D02*
X130902856Y-107528628D01*
X131140951Y-108004819D02*
X131140951Y-107004819D01*
X131140951Y-107004819D02*
X130759999Y-107004819D01*
X130759999Y-107004819D02*
X130664761Y-107052438D01*
X130664761Y-107052438D02*
X130617142Y-107100057D01*
X130617142Y-107100057D02*
X130569523Y-107195295D01*
X130569523Y-107195295D02*
X130569523Y-107338152D01*
X130569523Y-107338152D02*
X130617142Y-107433390D01*
X130617142Y-107433390D02*
X130664761Y-107481009D01*
X130664761Y-107481009D02*
X130759999Y-107528628D01*
X130759999Y-107528628D02*
X131140951Y-107528628D01*
X130140951Y-107481009D02*
X129807618Y-107481009D01*
X129664761Y-108004819D02*
X130140951Y-108004819D01*
X130140951Y-108004819D02*
X130140951Y-107004819D01*
X130140951Y-107004819D02*
X129664761Y-107004819D01*
X128902856Y-107481009D02*
X129236189Y-107481009D01*
X129236189Y-108004819D02*
X129236189Y-107004819D01*
X129236189Y-107004819D02*
X128759999Y-107004819D01*
X128236189Y-107004819D02*
X128236189Y-107242914D01*
X128474284Y-107147676D02*
X128236189Y-107242914D01*
X128236189Y-107242914D02*
X127998094Y-107147676D01*
X128379046Y-107433390D02*
X128236189Y-107242914D01*
X128236189Y-107242914D02*
X128093332Y-107433390D01*
X127474284Y-107004819D02*
X127474284Y-107242914D01*
X127712379Y-107147676D02*
X127474284Y-107242914D01*
X127474284Y-107242914D02*
X127236189Y-107147676D01*
X127617141Y-107433390D02*
X127474284Y-107242914D01*
X127474284Y-107242914D02*
X127331427Y-107433390D01*
X137678092Y-105444819D02*
X137678092Y-106254342D01*
X137678092Y-106254342D02*
X137630473Y-106349580D01*
X137630473Y-106349580D02*
X137582854Y-106397200D01*
X137582854Y-106397200D02*
X137487616Y-106444819D01*
X137487616Y-106444819D02*
X137297140Y-106444819D01*
X137297140Y-106444819D02*
X137201902Y-106397200D01*
X137201902Y-106397200D02*
X137154283Y-106349580D01*
X137154283Y-106349580D02*
X137106664Y-106254342D01*
X137106664Y-106254342D02*
X137106664Y-105444819D01*
X136106664Y-106444819D02*
X136678092Y-106444819D01*
X136392378Y-106444819D02*
X136392378Y-105444819D01*
X136392378Y-105444819D02*
X136487616Y-105587676D01*
X136487616Y-105587676D02*
X136582854Y-105682914D01*
X136582854Y-105682914D02*
X136678092Y-105730533D01*
%TO.C,C1*%
D11*
X132565000Y-98295000D02*
G75*
G02*
X132505000Y-98295000I-30000J0D01*
G01*
X132505000Y-98295000D02*
G75*
G02*
X132565000Y-98295000I30000J0D01*
G01*
D10*
X133495000Y-98415000D02*
G75*
G02*
X133345000Y-98565000I-150000J0D01*
G01*
X133345000Y-96765000D02*
G75*
G02*
X133495000Y-96915000I0J-150000D01*
G01*
X129725000Y-98565000D02*
G75*
G02*
X129575000Y-98415000I0J150000D01*
G01*
X129575000Y-96915000D02*
G75*
G02*
X129725000Y-96765000I150000J0D01*
G01*
X133495000Y-98415000D02*
X133495000Y-96915000D01*
X133345000Y-96765000D02*
X131935000Y-96765000D01*
X131935000Y-98565000D02*
X133345000Y-98565000D01*
X131135000Y-98565000D02*
X129725000Y-98565000D01*
X129725000Y-96765000D02*
X131135000Y-96765000D01*
X129575000Y-98415000D02*
X129575000Y-96915000D01*
%TO.C,C2*%
D11*
X132565000Y-101245000D02*
G75*
G02*
X132505000Y-101245000I-30000J0D01*
G01*
X132505000Y-101245000D02*
G75*
G02*
X132565000Y-101245000I30000J0D01*
G01*
D10*
X133495000Y-101365000D02*
G75*
G02*
X133345000Y-101515000I-150000J0D01*
G01*
X133345000Y-99715000D02*
G75*
G02*
X133495000Y-99865000I0J-150000D01*
G01*
X129725000Y-101515000D02*
G75*
G02*
X129575000Y-101365000I0J150000D01*
G01*
X129575000Y-99865000D02*
G75*
G02*
X129725000Y-99715000I150000J0D01*
G01*
X133495000Y-101365000D02*
X133495000Y-99865000D01*
X133345000Y-99715000D02*
X131935000Y-99715000D01*
X131935000Y-101515000D02*
X133345000Y-101515000D01*
X131135000Y-101515000D02*
X129725000Y-101515000D01*
X129725000Y-99715000D02*
X131135000Y-99715000D01*
X129575000Y-101365000D02*
X129575000Y-99865000D01*
%TO.C,C3*%
D11*
X132565000Y-104195000D02*
G75*
G02*
X132505000Y-104195000I-30000J0D01*
G01*
X132505000Y-104195000D02*
G75*
G02*
X132565000Y-104195000I30000J0D01*
G01*
D10*
X133495000Y-104315000D02*
G75*
G02*
X133345000Y-104465000I-150000J0D01*
G01*
X133345000Y-102665000D02*
G75*
G02*
X133495000Y-102815000I0J-150000D01*
G01*
X129725000Y-104465000D02*
G75*
G02*
X129575000Y-104315000I0J150000D01*
G01*
X129575000Y-102815000D02*
G75*
G02*
X129725000Y-102665000I150000J0D01*
G01*
X133495000Y-104315000D02*
X133495000Y-102815000D01*
X133345000Y-102665000D02*
X131935000Y-102665000D01*
X131935000Y-104465000D02*
X133345000Y-104465000D01*
X131135000Y-104465000D02*
X129725000Y-104465000D01*
X129725000Y-102665000D02*
X131135000Y-102665000D01*
X129575000Y-104315000D02*
X129575000Y-102815000D01*
%TO.C,L1*%
D11*
X146771190Y-111475000D02*
G75*
G02*
X146711190Y-111475000I-30000J0D01*
G01*
X146711190Y-111475000D02*
G75*
G02*
X146771190Y-111475000I30000J0D01*
G01*
D12*
X146441190Y-111475000D02*
X139841190Y-111475000D01*
X146441190Y-110155000D02*
X146441190Y-111475000D01*
X146441190Y-104875000D02*
X146441190Y-106195000D01*
X146441190Y-104875000D02*
X139841190Y-104875000D01*
X139841190Y-110155000D02*
X139841190Y-111475000D01*
X139841190Y-104875000D02*
X139841190Y-106195000D01*
%TO.C,L2*%
D11*
X133641190Y-106715000D02*
G75*
G02*
X133581190Y-106715000I-30000J0D01*
G01*
X133581190Y-106715000D02*
G75*
G02*
X133641190Y-106715000I30000J0D01*
G01*
D10*
X134571190Y-106855000D02*
X134571190Y-104975000D01*
X134571190Y-104975000D02*
X134421190Y-104825000D01*
X134421190Y-107005000D02*
X134571190Y-106855000D01*
X134421190Y-104825000D02*
X132941190Y-104825000D01*
X132941190Y-107005000D02*
X134421190Y-107005000D01*
X131081190Y-107005000D02*
X129601190Y-107005000D01*
X129601190Y-107005000D02*
X129451190Y-106855000D01*
X129601190Y-104825000D02*
X131081190Y-104825000D01*
X129451190Y-106855000D02*
X129451190Y-104975000D01*
X129451190Y-104975000D02*
X129601190Y-104825000D01*
%TO.C,U1*%
D13*
X136016187Y-104840000D02*
X135816188Y-104840000D01*
X136016187Y-107140000D02*
X135816188Y-107140000D01*
X138016186Y-104840000D02*
X137516187Y-104840000D01*
X138016188Y-107140000D02*
X137816189Y-107140000D01*
%TD*%
%LPC*%
D14*
%TO.C,C1*%
X130535000Y-97665000D03*
X132535000Y-97665000D03*
%TD*%
%TO.C,C2*%
X130535000Y-100615000D03*
X132535000Y-100615000D03*
%TD*%
%TO.C,C3*%
X130535000Y-103565000D03*
X132535000Y-103565000D03*
%TD*%
D15*
%TO.C,J2*%
X146750000Y-102775000D03*
D16*
X126750000Y-102775000D03*
%TD*%
D17*
%TO.C,L1*%
X140291190Y-108175000D03*
X145991190Y-108175000D03*
%TD*%
D18*
%TO.C,L2*%
X130421190Y-105915000D03*
X133601190Y-105915000D03*
%TD*%
D19*
%TO.C,REF\u002A\u002A*%
X136750000Y-58000000D03*
%TD*%
%TO.C,REF\u002A\u002A*%
X136750000Y-70000000D03*
%TD*%
D20*
%TO.C,REF\u002A\u002A*%
X152500000Y-53500000D03*
%TD*%
%TO.C,REF\u002A\u002A*%
X152500000Y-111500000D03*
%TD*%
%TO.C,REF\u002A\u002A*%
X129500000Y-53500000D03*
%TD*%
%TO.C,REF\u002A\u002A*%
X129500000Y-111500000D03*
%TD*%
D21*
%TO.C,U1*%
X137816189Y-105240002D03*
D22*
X137816189Y-105740000D03*
X137816189Y-106240002D03*
X137816189Y-106740001D03*
D23*
X136466189Y-106590001D03*
X136466189Y-105990000D03*
X136466189Y-105390001D03*
%TD*%
%LPD*%
M02*
